<svg xmlns="http://www.w3.org/2000/svg" viewBox="0 0 75 75"><defs><style>.cls-1{isolation:isolate;}.cls-2{fill:#e95653;}.cls-3{fill:none;}.cls-4{opacity:0.15;mix-blend-mode:multiply;}.cls-5{fill:#f9d2d1;}.cls-6{fill:#fff;}</style></defs><g class="cls-1"><g id="Layer_2" data-name="Layer 2"><g id="Layer_5" data-name="Layer 5"><circle class="cls-2" cx="37.5" cy="37.5" r="37.5"/><path class="cls-3" d="M26.649,45.318l-2.094-.089a1.442,1.442,0,0,1-1.383-1.535l.132-2.141a2.408,2.408,0,0,0-1.231-2.132l-1.921-.953a1.448,1.448,0,0,1-.64-1.967l1-1.9a2.416,2.416,0,0,0-.259-2.447L18.88,30.5a1.442,1.442,0,0,1,.216-2.054l1.686-1.338a2.409,2.409,0,0,0,.758-2.34L20.965,22.7A1.448,1.448,0,0,1,22,20.912l2.078-.537a2.417,2.417,0,0,0,1.65-1.83l.311-2.121a1.444,1.444,0,0,1,1.672-1.213l2.116.359a2.415,2.415,0,0,0,2.249-1l1.148-1.815a1.445,1.445,0,0,1,2.023-.43l1.788,1.186a2.416,2.416,0,0,0,2.463,0l1.788-1.186a1.444,1.444,0,0,1,2.021.43l1.148,1.815a2.109,2.109,0,0,0,.677.619l.186-.123a1.441,1.441,0,0,1,2,.4l1.5-.255c.8-.138,25.747,16.855,25.866,17.656l.024.015A37.512,37.512,0,1,0,43.774,74.468L20.342,58.543Z"/><path class="cls-4" d="M75,37.5a37.839,37.839,0,0,0-.293-4.618l-.024-.015c-.119-.8-25.065-17.794-25.866-17.656l-1.5.255a1.441,1.441,0,0,0-2-.4l-.186.123a2.109,2.109,0,0,1-.677-.619L43.3,12.755a1.444,1.444,0,0,0-2.021-.43l-1.788,1.186a2.416,2.416,0,0,1-2.463,0l-1.788-1.186a1.445,1.445,0,0,0-2.023.43L32.073,14.57a2.415,2.415,0,0,1-2.249,1l-2.116-.359a1.444,1.444,0,0,0-1.672,1.213l-.311,2.121a2.417,2.417,0,0,1-1.65,1.83L22,20.912A1.448,1.448,0,0,0,20.965,22.7l.575,2.063a2.409,2.409,0,0,1-.758,2.34L19.1,28.444A1.442,1.442,0,0,0,18.88,30.5l1.37,1.655a2.416,2.416,0,0,1,.259,2.447l-1,1.9a1.448,1.448,0,0,0,.64,1.967l1.921.953A2.408,2.408,0,0,1,23.3,41.553l-.132,2.141a1.442,1.442,0,0,0,1.383,1.535l2.094.089L20.342,58.543,43.774,74.468A37.5,37.5,0,0,0,75,37.5Z"/><polygon class="cls-5" points="28.326 40.201 19.58 58.543 26.353 56.142 28.752 62.917 37.499 44.576 28.326 40.201"/><polygon class="cls-5" points="46.674 40.201 55.418 58.543 48.647 56.142 46.246 62.917 37.499 44.576 46.674 40.201"/><path class="cls-6" d="M36.27,13.512a2.42,2.42,0,0,0,2.463,0l1.788-1.187a1.443,1.443,0,0,1,2.02.43L43.69,14.57a2.415,2.415,0,0,0,2.246,1l2.119-.359a1.443,1.443,0,0,1,1.671,1.213l.314,2.121a2.429,2.429,0,0,0,1.645,1.833l2.078.535A1.45,1.45,0,0,1,54.8,22.705l-.577,2.061a2.414,2.414,0,0,0,.76,2.34l1.686,1.338a1.445,1.445,0,0,1,.216,2.057l-1.369,1.652a2.406,2.406,0,0,0-.257,2.447l.994,1.9a1.445,1.445,0,0,1-.64,1.967l-1.921.953a2.414,2.414,0,0,0-1.231,2.133l.133,2.14a1.445,1.445,0,0,1-1.384,1.535l-2.142.091a2.416,2.416,0,0,0-1.992,1.45l-.747,2.009a1.444,1.444,0,0,1-1.887.841l-2-.791a2.417,2.417,0,0,0-2.406.513l-1.5,1.531a1.442,1.442,0,0,1-2.066,0l-1.5-1.531a2.421,2.421,0,0,0-2.408-.513l-1.995.791a1.444,1.444,0,0,1-1.887-.841l-.749-2.009a2.41,2.41,0,0,0-1.99-1.45l-2.142-.091a1.444,1.444,0,0,1-1.384-1.535l.133-2.14a2.41,2.41,0,0,0-1.231-2.133l-1.921-.953a1.446,1.446,0,0,1-.64-1.967l1-1.9a2.414,2.414,0,0,0-.259-2.447L18.118,30.5a1.442,1.442,0,0,1,.216-2.054l1.686-1.338a2.409,2.409,0,0,0,.758-2.34L20.2,22.7a1.446,1.446,0,0,1,1.031-1.79l2.078-.538a2.414,2.414,0,0,0,1.65-1.83l.312-2.121a1.444,1.444,0,0,1,1.671-1.213l2.116.359a2.414,2.414,0,0,0,2.249-1l1.149-1.815a1.445,1.445,0,0,1,2.023-.43Z"/><path class="cls-2" d="M51.78,31.716A14.28,14.28,0,1,1,37.5,17.439,14.283,14.283,0,0,1,51.78,31.716Z"/><polygon class="cls-6" points="37.501 23.98 40.014 29.074 45.637 29.89 41.569 33.855 42.529 39.457 37.501 36.813 32.471 39.457 33.431 33.855 29.363 29.89 34.986 29.074 37.501 23.98"/></g></g></g></svg>