<?xml version="1.0" encoding="utf-8"?>
<!-- Generator: Adobe Illustrator 24.1.3, SVG Export Plug-In . SVG Version: 6.00 Build 0)  -->
<svg version="1.1" id="Layer_1" xmlns="http://www.w3.org/2000/svg" xmlns:xlink="http://www.w3.org/1999/xlink" x="0px" y="0px"
	 viewBox="0 0 206 40" style="enable-background:new 0 0 206 40;" xml:space="preserve">
<style type="text/css">
	.st0{enable-background:new    ;}
	.st1{fill:none;}
	.st2{fill:#B2BAC1;}
	.st3{fill:#E11E19;}
	.st4{fill:#CED5DC;}
	.st5{fill:#BEC8D2;}
	.st6{fill:#212934;}
</style>
<g>
	<g class="st0">
		<path class="st1" d="M28,11.3l0.4,0.2c2.3,1.2,4.8,3.1,7.8,5.7L35.8,17C32.8,14.4,30.3,12.5,28,11.3z"/>
		<path class="st2" d="M36.7,18C36.7,18,36.7,18,36.7,18c0-0.1,0-0.2-0.1-0.3c0,0,0,0,0-0.1c0-0.1-0.1-0.1-0.1-0.2c0,0,0,0,0-0.1
			c-0.1-0.1-0.1-0.1-0.2-0.2c-3-2.6-5.5-4.5-7.8-5.7L28,11.3c2.3,1.2,4.8,3.1,7.8,5.7c0.1,0.1,0.1,0.1,0.2,0.2c0,0,0,0,0,0.1
			c0,0.1,0.1,0.1,0.1,0.2c0,0,0,0,0,0.1c0,0.1,0.1,0.2,0.1,0.3c0,0,0,0,0,0c0,0.1,0,0.2,0,0.3c0,0,0,0.1,0,0.1c0,0.1,0,0.1,0,0.2
			c0,0,0,0.1,0,0.1c0,0.1,0,0.2-0.1,0.3c0,0,0,0,0,0c0,0.1-0.1,0.2-0.1,0.3c0,0,0,0,0,0.1c-0.1,0.1-0.1,0.2-0.2,0.2
			c-0.3,0.4-0.6,0.7-0.9,1.1c-0.1,0.1-0.2,0.2-0.3,0.3c-0.2,0.2-0.4,0.4-0.6,0.7c-0.2,0.2-0.4,0.4-0.5,0.6c-0.2,0.2-0.3,0.3-0.5,0.5
			c-0.2,0.2-0.4,0.4-0.5,0.6c-0.2,0.2-0.3,0.3-0.5,0.5c-0.2,0.2-0.4,0.3-0.5,0.5c-0.2,0.1-0.3,0.3-0.5,0.4c-0.2,0.2-0.4,0.3-0.5,0.5
			c-0.2,0.1-0.3,0.3-0.5,0.4c-0.1,0.1-0.2,0.2-0.3,0.2c-0.2,0.2-0.4,0.3-0.6,0.5c-0.1,0.1-0.2,0.2-0.3,0.2c-0.2,0.2-0.5,0.4-0.7,0.5
			C28.1,26.9,28,27,28,27c-0.3,0.2-0.6,0.4-0.8,0.6c-0.1,0-0.1,0.1-0.2,0.1c-0.2,0.1-0.4,0.3-0.6,0.4c-0.1,0.1-0.2,0.1-0.3,0.1
			c-0.2,0.1-0.4,0.2-0.6,0.4c-0.1,0-0.1,0.1-0.2,0.1c-0.3,0.1-0.5,0.3-0.8,0.4c-0.2,0.1-0.3,0.1-0.5,0.2c-0.1,0.1-0.3,0.1-0.4,0.2
			c-0.2,0.1-0.4,0.1-0.5,0.2c-0.1,0-0.2,0.1-0.4,0.1c-0.2,0.1-0.4,0.1-0.6,0.2c-0.1,0-0.2,0.1-0.3,0.1c-0.3,0.1-0.6,0.1-0.9,0.2
			c-0.3,0-0.6,0.1-0.8,0.1c0,0-0.1,0-0.1,0c-0.3,0-0.5,0-0.8,0c-0.1,0-0.1,0-0.2,0c-0.3,0-0.5,0-0.8-0.1c0,0-0.1,0-0.1,0
			c-0.3,0-0.6-0.1-0.8-0.1c0,0,0,0,0,0c-0.3-0.1-0.5-0.1-0.8-0.2c-0.1,0-0.1,0-0.2-0.1c-0.3-0.1-0.6-0.2-0.8-0.3c0,0-0.1,0-0.1,0
			c-0.3-0.1-0.5-0.2-0.8-0.3c-0.1,0-0.2-0.1-0.2-0.1c-0.3-0.1-0.6-0.3-0.8-0.4l0.4,0.2c0.2,0.1,0.4,0.2,0.6,0.3
			c0.1,0,0.1,0.1,0.2,0.1c0.1,0,0.2,0.1,0.2,0.1c0.3,0.1,0.5,0.2,0.8,0.3c0,0,0.1,0,0.1,0c0.3,0.1,0.6,0.2,0.8,0.3
			c0.1,0,0.1,0,0.2,0.1c0.1,0,0.2,0.1,0.3,0.1c0.2,0,0.3,0.1,0.5,0.1c0,0,0,0,0,0c0.3,0.1,0.6,0.1,0.8,0.1c0,0,0.1,0,0.1,0
			c0.3,0,0.5,0.1,0.8,0.1c0.1,0,0.1,0,0.2,0c0.3,0,0.5,0,0.8,0c0,0,0.1,0,0.1,0c0.3,0,0.6,0,0.8-0.1c0.3,0,0.6-0.1,0.9-0.2
			c0.1,0,0.2-0.1,0.3-0.1c0.2,0,0.4-0.1,0.6-0.2c0.1,0,0.2-0.1,0.4-0.1c0.2-0.1,0.4-0.1,0.5-0.2c0.1,0,0.3-0.1,0.4-0.2
			c0.2-0.1,0.3-0.1,0.5-0.2c0,0,0,0,0.1,0c0.2-0.1,0.5-0.2,0.7-0.3c0.1,0,0.1-0.1,0.2-0.1c0.2-0.1,0.4-0.2,0.6-0.4
			c0.1,0,0.2-0.1,0.3-0.1c0.2-0.1,0.4-0.3,0.6-0.4c0.1,0,0.1-0.1,0.2-0.1c0,0,0.1,0,0.1,0c0.2-0.2,0.5-0.3,0.8-0.5
			c0.1,0,0.1-0.1,0.2-0.1c0.2-0.2,0.5-0.3,0.7-0.5c0.1-0.1,0.2-0.1,0.3-0.2c0.2-0.2,0.4-0.3,0.6-0.5c0.1-0.1,0.2-0.2,0.3-0.2
			c0.1,0,0.1-0.1,0.2-0.1c0.1-0.1,0.2-0.2,0.3-0.3c0.2-0.2,0.3-0.3,0.5-0.5c0.2-0.1,0.3-0.3,0.5-0.4c0.2-0.2,0.4-0.3,0.5-0.5
			c0.2-0.2,0.3-0.3,0.5-0.5c0.2-0.2,0.4-0.4,0.5-0.6c0.2-0.2,0.3-0.3,0.5-0.5c0.2-0.2,0.4-0.4,0.5-0.6c0.1-0.1,0.1-0.2,0.2-0.2
			c0.1-0.1,0.2-0.3,0.4-0.4c0.1-0.1,0.2-0.2,0.3-0.3c0.3-0.4,0.6-0.7,0.9-1.1c0,0,0,0,0,0c0,0,0.1-0.1,0.1-0.2c0,0,0-0.1,0.1-0.1
			c0,0,0,0,0-0.1c0,0,0,0,0,0c0-0.1,0.1-0.2,0.1-0.2c0,0,0,0,0,0c0,0,0,0,0,0c0-0.1,0.1-0.2,0.1-0.3c0,0,0-0.1,0-0.1
			c0-0.1,0-0.1,0-0.2c0,0,0-0.1,0-0.1C36.7,18.2,36.7,18.1,36.7,18z"/>
		<g>
			<path class="st3" d="M21.2,12.4c0.5-0.1,1-0.1,1.6,0c4,0.3,6.6,4.2,5.7,8.6c-0.2,1-0.6,2-1.1,2.9l-4.2-1.7l1.5,4.6
				c-1.1,0.8-2.3,1.3-3.5,1.4c-0.5,0.1-1,0.1-1.6,0c-4-0.3-6.6-4.2-5.7-8.6C14.6,15.8,17.7,12.9,21.2,12.4z"/>
		</g>
		<path class="st4" d="M23.5,12.5c0.1,0,0.3,0.1,0.4,0.1c0.1,0,0.2,0.1,0.3,0.1c0.1,0,0.2,0.1,0.3,0.1c0.1,0,0.2,0.1,0.3,0.1
			c0.1,0.1,0.3,0.1,0.4,0.2l-0.4-0.2c-0.1,0-0.1-0.1-0.2-0.1c-0.1,0-0.1,0-0.2-0.1c-0.1,0-0.2-0.1-0.3-0.1c-0.1,0-0.2-0.1-0.3-0.1
			c-0.1,0-0.2-0.1-0.3-0.1c0,0-0.1,0-0.1,0c-0.1,0-0.2,0-0.3-0.1c-0.1,0-0.1,0-0.2,0c-0.2,0-0.4-0.1-0.6-0.1c-0.5,0-1,0-1.6,0
			c-0.2,0-0.4,0.1-0.6,0.1c-0.1,0-0.1,0-0.2,0c-0.1,0-0.3,0.1-0.4,0.1c-0.1,0-0.1,0-0.2,0.1c-0.1,0-0.2,0.1-0.4,0.1
			c-0.1,0-0.2,0.1-0.2,0.1c-0.1,0-0.1,0-0.2,0.1c-0.1,0-0.1,0.1-0.2,0.1c-0.1,0.1-0.2,0.1-0.3,0.2c-0.1,0.1-0.2,0.1-0.3,0.2
			c-0.1,0.1-0.2,0.1-0.3,0.2c0,0-0.1,0.1-0.2,0.1c0,0-0.1,0.1-0.1,0.1c-0.1,0-0.1,0.1-0.2,0.1c-0.1,0.1-0.2,0.2-0.3,0.2
			c-0.1,0-0.1,0.1-0.2,0.1c0,0-0.1,0-0.1,0.1c-0.1,0.1-0.2,0.2-0.3,0.3c0,0,0,0-0.1,0.1c-0.1,0.1-0.3,0.3-0.4,0.4c0,0,0,0,0,0
			c-0.2,0.2-0.4,0.5-0.6,0.7c0,0,0,0-0.1,0.1c-0.1,0.1-0.1,0.2-0.2,0.2c0,0.1-0.1,0.1-0.1,0.2c-0.1,0.2-0.2,0.4-0.3,0.5c0,0,0,0,0,0
			c0,0,0,0.1-0.1,0.1c-0.1,0.2-0.2,0.3-0.3,0.5c0,0.1-0.1,0.2-0.1,0.2c-0.1,0.1-0.1,0.3-0.2,0.4c0,0,0,0,0,0
			c-0.1,0.2-0.1,0.3-0.2,0.5c0,0.1-0.1,0.2-0.1,0.2c-0.1,0.2-0.1,0.5-0.2,0.7c-0.4,1.9-0.1,3.7,0.7,5.2c0.6,1.1,1.5,2.1,2.6,2.7
			l0.4,0.2c-2.6-1.4-4-4.4-3.3-7.8c0-0.2,0.1-0.5,0.2-0.7c0-0.1,0.1-0.2,0.1-0.2c0-0.2,0.1-0.3,0.2-0.5c0.1-0.1,0.1-0.3,0.2-0.4
			c0-0.1,0.1-0.2,0.1-0.2c0.1-0.2,0.2-0.3,0.3-0.5c0,0,0-0.1,0-0.1c0.1-0.2,0.2-0.4,0.3-0.6c0-0.1,0.1-0.1,0.1-0.2
			c0.1-0.1,0.1-0.2,0.2-0.3c0.2-0.3,0.4-0.5,0.6-0.7c0.1-0.1,0.3-0.3,0.4-0.4c0,0,0,0,0.1-0.1c0.1-0.1,0.3-0.2,0.4-0.4
			c0.1-0.1,0.1-0.1,0.2-0.1c0.1-0.1,0.2-0.2,0.3-0.2c0.1,0,0.1-0.1,0.2-0.1c0.1-0.1,0.2-0.1,0.3-0.2c0.1-0.1,0.2-0.1,0.3-0.2
			c0.1-0.1,0.2-0.1,0.3-0.2c0.1-0.1,0.2-0.1,0.3-0.2c0.1-0.1,0.2-0.1,0.3-0.1c0.1,0,0.2-0.1,0.2-0.1c0.1,0,0.2-0.1,0.4-0.1
			c0.1,0,0.1-0.1,0.2-0.1c0.1,0,0.3-0.1,0.4-0.1c0.1,0,0.1,0,0.2,0c0.2,0,0.4-0.1,0.6-0.1c0.5-0.1,1-0.1,1.6,0c0.2,0,0.4,0,0.6,0.1
			C23.4,12.4,23.5,12.5,23.5,12.5z"/>
		<path class="st5" d="M22.4,7.3c0.1,0,0.1,0,0.2,0c0.1,0,0.2,0,0.3,0c0.1,0,0.1,0,0.2,0c0.1,0,0.2,0,0.3,0c0.1,0,0.2,0,0.2,0
			c0.1,0,0.2,0,0.3,0c0.1,0,0.2,0,0.2,0c0.1,0,0.2,0,0.3,0c0.1,0,0.2,0,0.2,0c0.1,0,0.2,0,0.3,0.1c0.1,0,0.2,0,0.2,0
			c0.1,0,0.2,0,0.3,0.1c0.1,0,0.1,0,0.2,0.1c0.2,0.1,0.4,0.1,0.7,0.2c0,0,0.1,0,0.1,0C26.9,8,27,8.1,27.2,8.2c0.1,0,0.1,0,0.2,0.1
			c0.2,0.1,0.5,0.2,0.7,0.3c0,0,0.1,0,0.1,0c0.2,0.1,0.4,0.2,0.6,0.3c0.1,0,0.1,0.1,0.2,0.1c0.2,0.1,0.5,0.2,0.7,0.4c0,0,0,0,0,0
			l0,0c0,0,0,0,0,0l-0.4-0.2c-0.2-0.1-0.5-0.2-0.7-0.4c0,0-0.1,0-0.1,0c0,0-0.1,0-0.1,0c-0.2-0.1-0.4-0.2-0.6-0.3c0,0-0.1,0-0.1,0
			C27.4,8.2,27.2,8.1,27,8c-0.1,0-0.1,0-0.2-0.1c-0.2-0.1-0.4-0.1-0.6-0.2c0,0-0.1,0-0.1,0c-0.2-0.1-0.5-0.1-0.7-0.2c0,0,0,0-0.1,0
			c-0.1,0-0.1,0-0.2,0c-0.1,0-0.2,0-0.3-0.1c-0.1,0-0.2,0-0.2,0c-0.1,0-0.2,0-0.3-0.1c-0.1,0-0.2,0-0.2,0c-0.1,0-0.2,0-0.3,0
			c-0.1,0-0.2,0-0.2,0c-0.1,0-0.2,0-0.3,0c-0.1,0-0.2,0-0.2,0c-0.1,0-0.2,0-0.3,0c-0.1,0-0.1,0-0.2,0c-0.1,0-0.2,0-0.3,0
			c-0.1,0-0.1,0-0.2,0c-0.1,0-0.2,0-0.3,0c-0.1,0-0.1,0-0.2,0c-0.2,0-0.3,0-0.5,0c-0.1,0-0.2,0-0.4,0c-0.3,0-0.6,0.1-1,0.2
			c0,0,0,0-0.1,0c-0.3,0.1-0.6,0.1-0.9,0.2c0,0-0.1,0-0.1,0C18.3,7.7,18,7.8,17.7,8c0,0-0.1,0-0.1,0c-0.3,0.1-0.6,0.2-0.9,0.4
			c0,0,0,0-0.1,0c0,0-0.1,0-0.1,0c-0.2,0.1-0.4,0.2-0.6,0.3c0,0,0,0,0,0c-0.2,0.1-0.4,0.2-0.6,0.4c-0.1,0-0.1,0.1-0.2,0.1
			c-0.2,0.1-0.4,0.3-0.7,0.4c0,0,0,0,0,0C14.2,9.7,14,9.9,13.8,10c0,0-0.1,0-0.1,0.1c0,0,0,0-0.1,0.1c-0.2,0.2-0.5,0.3-0.7,0.5
			c0,0-0.1,0.1-0.1,0.1c-0.2,0.2-0.5,0.3-0.7,0.5c0,0-0.1,0.1-0.1,0.1c-0.2,0.2-0.5,0.4-0.7,0.6c-0.1,0-0.1,0.1-0.2,0.1
			c-0.3,0.2-0.5,0.4-0.8,0.7c0,0,0,0,0,0c0,0,0,0-0.1,0.1c-0.2,0.2-0.4,0.3-0.5,0.5c-0.1,0.1-0.1,0.1-0.2,0.2
			c-0.1,0.1-0.3,0.2-0.4,0.4C9.1,13.9,9,13.9,8.9,14c-0.1,0.1-0.2,0.2-0.4,0.4c-0.1,0.1-0.2,0.2-0.2,0.2c-0.1,0.1-0.3,0.2-0.4,0.4
			c-0.1,0.1-0.2,0.2-0.3,0.3c-0.1,0.1-0.3,0.3-0.4,0.4c-0.1,0.1-0.2,0.2-0.2,0.2c-0.1,0.2-0.3,0.3-0.4,0.5c-0.1,0.1-0.1,0.1-0.2,0.2
			C6.2,16.8,6,17,5.8,17.2c0,0-0.1,0.1-0.1,0.1c-0.2,0.2-0.4,0.4-0.6,0.6c0,0,0,0,0,0.1C5,18,5,18.1,5,18.1
			c-0.4,0.4-0.7,0.8-1.1,1.2c-0.1,0.1-0.2,0.2-0.3,0.3c0,0,0,0,0,0c0,0,0,0,0,0.1c-0.1,0.1-0.2,0.2-0.2,0.3c0,0,0,0,0,0.1
			c0,0,0,0,0,0.1c-0.1,0.2-0.2,0.3-0.2,0.5c0,0,0,0,0,0c0,0.1,0,0.1-0.1,0.2C3,20.9,3,21,3,21c0,0.1,0,0.1-0.1,0.2c0,0,0,0.1,0,0.1
			c0,0.1,0,0.2,0,0.3c0,0,0,0.1,0,0.1c0,0.1,0,0.3,0,0.4c0,1,0.4,1.9,1.1,2.6c3.1,2.7,5.8,4.7,8.3,6l0.4,0.2c-2.5-1.3-5.2-3.3-8.3-6
			c-0.7-0.6-1.1-1.5-1.1-2.6c0-0.1,0-0.3,0-0.4c0,0,0-0.1,0-0.1c0-0.1,0-0.2,0-0.2c0-0.1,0-0.1,0-0.1c0-0.1,0-0.1,0.1-0.2
			c0-0.1,0-0.1,0.1-0.2c0-0.1,0-0.1,0.1-0.2c0.1-0.2,0.1-0.3,0.2-0.5c0,0,0-0.1,0.1-0.1c0.1-0.1,0.1-0.2,0.2-0.3c0,0,0,0,0-0.1
			c0.1-0.1,0.2-0.2,0.3-0.3c0.4-0.4,0.7-0.8,1.1-1.2c0,0,0.1-0.1,0.1-0.1c0.2-0.2,0.4-0.4,0.6-0.6c0,0,0.1-0.1,0.1-0.1
			c0.2-0.2,0.4-0.5,0.7-0.7C6.9,16.7,7,16.6,7,16.6c0.2-0.2,0.3-0.3,0.4-0.5c0.1-0.1,0.2-0.2,0.2-0.2c0.1-0.1,0.3-0.3,0.4-0.4
			c0.1-0.1,0.2-0.2,0.2-0.2c0.1-0.1,0.3-0.3,0.4-0.4c0.1-0.1,0.2-0.2,0.2-0.2c0.1-0.1,0.3-0.2,0.4-0.4c0.1-0.1,0.2-0.1,0.2-0.2
			c0.1-0.1,0.3-0.2,0.4-0.4c0.1-0.1,0.1-0.1,0.2-0.2c0.2-0.2,0.4-0.3,0.5-0.5c0,0,0,0,0.1,0c0.3-0.2,0.5-0.4,0.8-0.7
			c0.1,0,0.1-0.1,0.2-0.1c0.2-0.2,0.5-0.4,0.7-0.6c0,0,0.1-0.1,0.1-0.1c0.2-0.2,0.5-0.3,0.7-0.5c0,0,0.1-0.1,0.1-0.1
			c0.2-0.2,0.5-0.3,0.7-0.5c0.1,0,0.1-0.1,0.2-0.1c0.2-0.1,0.4-0.3,0.6-0.4c0,0,0,0,0,0c0.2-0.1,0.4-0.3,0.7-0.4
			c0.1,0,0.1-0.1,0.2-0.1c0.4-0.2,0.9-0.5,1.3-0.7c0,0,0.1,0,0.1-0.1c0.3-0.1,0.6-0.3,0.9-0.4c0,0,0.1,0,0.1,0
			C18.5,8.1,18.7,8,19,7.9c0,0,0.1,0,0.1,0c0.3-0.1,0.6-0.2,0.9-0.2c0,0,0,0,0.1,0c0.3-0.1,0.6-0.1,1-0.2c0.1,0,0.2,0,0.4,0
			c0.2,0,0.3,0,0.5,0c0.1,0,0.1,0,0.2,0C22.2,7.3,22.3,7.3,22.4,7.3z"/>
		<g>
			<path class="st3" d="M37.9,15.2c0.8,0.7,1.2,1.7,1.2,2.8c0,1.1-0.4,2.3-1.2,3.2c-6.7,7.6-11.4,11-16.3,11.7
				c-5.1,0.7-10.1-1.7-17.3-7.9c-0.7-0.6-1.1-1.5-1.1-2.6c0-1,0.4-2.1,1.1-2.9C11.1,11.8,16.2,8.1,21,7.4c0.1,0,0.2,0,0.4,0
				C26.2,6.9,31,9.1,37.9,15.2z M36.2,19.6c0.6-0.7,0.6-1.8,0-2.3C29.6,11.5,25.5,9.4,21,10c-3.6,0.5-9.7,4.2-14.5,10.8
				c-0.5,0.7-0.5,1.7,0,2.3c5.4,5.5,10.1,7.9,14.8,7.3C26,29.7,30.6,26.2,36.2,19.6"/>
		</g>
	</g>
</g>
<g>
	<path class="st6" d="M62.9,29.1c-1.4,0.7-3.1,1.1-5.1,1.1c-2.6,0-4.8-0.8-6.3-2.6C49.8,26,49,23.8,49,21c0-3,0.9-5.4,2.7-7.2
		c1.8-1.8,4.1-2.7,6.8-2.7c1.8,0,3.2,0.3,4.4,0.8v2.3c-1.3-0.7-2.8-1.1-4.4-1.1c-2.1,0-3.9,0.7-5.2,2.1c-1.3,1.4-2,3.3-2,5.7
		c0,2.3,0.6,4.1,1.9,5.4c1.2,1.3,2.9,2,4.9,2c1.9,0,3.5-0.4,4.8-1.2V29.1z"/>
	<path class="st6" d="M68.8,29.9h-2.2V11.4h2.2V29.9z"/>
	<path class="st6" d="M73.7,29.9V11.4H79c1.6,0,2.9,0.4,3.8,1.2c0.9,0.8,1.4,1.8,1.4,3.1c0,1.1-0.3,2-0.9,2.7S82,19.7,81,20v0.1
		c1.3,0.1,2.3,0.6,3,1.4c0.8,0.8,1.1,1.8,1.1,3.1c0,1.6-0.6,2.9-1.7,3.9c-1.1,1-2.6,1.5-4.3,1.5H73.7z M75.9,13.3v6h2.2
		c1.2,0,2.1-0.3,2.8-0.9c0.7-0.6,1-1.4,1-2.4c0-1.8-1.2-2.7-3.6-2.7H75.9z M75.9,21.3V28h3c1.3,0,2.3-0.3,3-0.9
		c0.7-0.6,1.1-1.4,1.1-2.5c0-2.2-1.5-3.3-4.5-3.3H75.9z"/>
	<path class="st6" d="M107.2,29.9h-2.1v-2.3H105c-1,1.7-2.5,2.6-4.6,2.6c-1.7,0-3-0.6-4-1.8c-1-1.2-1.5-2.8-1.5-4.8
		c0-2.2,0.6-3.9,1.7-5.3s2.6-2,4.4-2c1.8,0,3.1,0.7,4,2.1h0.1v-8.2h2.1V29.9z M105.1,23.9v-2c0-1.1-0.4-2-1.1-2.7
		c-0.7-0.7-1.6-1.1-2.7-1.1c-1.3,0-2.3,0.5-3.1,1.4c-0.7,0.9-1.1,2.3-1.1,3.9c0,1.5,0.4,2.7,1.1,3.6s1.7,1.3,2.9,1.3
		c1.2,0,2.1-0.4,2.9-1.3S105.1,25.2,105.1,23.9z"/>
	<path class="st6" d="M117.1,30.2c-2,0-3.5-0.6-4.7-1.9c-1.2-1.2-1.8-2.9-1.8-4.9c0-2.2,0.6-4,1.8-5.2c1.2-1.3,2.9-1.9,4.9-1.9
		c2,0,3.5,0.6,4.6,1.8s1.7,2.9,1.7,5.1c0,2.1-0.6,3.8-1.8,5.1C120.7,29.6,119.1,30.2,117.1,30.2z M117.2,18.1
		c-1.4,0-2.4,0.5-3.2,1.4c-0.8,0.9-1.2,2.2-1.2,3.8c0,1.6,0.4,2.8,1.2,3.7s1.9,1.4,3.2,1.4c1.4,0,2.4-0.4,3.2-1.3
		c0.7-0.9,1.1-2.2,1.1-3.8c0-1.7-0.4-2.9-1.1-3.8C119.6,18.6,118.6,18.1,117.2,18.1z"/>
	<path class="st6" d="M140.2,29.9h-2.7l-4.3-7.1c-0.1-0.2-0.3-0.5-0.4-0.9h-0.1c-0.1,0.2-0.2,0.5-0.4,0.9l-4.4,7.1h-2.7l6.2-9.3
		l-5.7-9.2h2.7l3.8,6.5c0.3,0.4,0.5,0.9,0.7,1.3h0.1c0.3-0.6,0.5-1,0.7-1.3l3.9-6.5h2.5l-5.8,9.2L140.2,29.9z"/>
	<path class="st6" d="M143.8,13.3c-0.4,0-0.7-0.1-1-0.4c-0.3-0.3-0.4-0.6-0.4-1s0.1-0.7,0.4-1c0.3-0.3,0.6-0.4,1-0.4
		c0.4,0,0.7,0.1,1,0.4c0.3,0.3,0.4,0.6,0.4,1c0,0.4-0.1,0.7-0.4,1C144.5,13.2,144.2,13.3,143.8,13.3z M144.8,29.9h-2.1V16.7h2.1
		V29.9z"/>
	<path class="st6" d="M159.5,16.7l-5.3,13.3h-2.1l-5-13.3h2.3l3.4,9.6c0.3,0.7,0.4,1.3,0.5,1.9h0.1c0.1-0.7,0.2-1.3,0.4-1.8l3.5-9.7
		H159.5z"/>
	<path class="st6" d="M162.9,13.3c-0.4,0-0.7-0.1-1-0.4c-0.3-0.3-0.4-0.6-0.4-1s0.1-0.7,0.4-1c0.3-0.3,0.6-0.4,1-0.4
		c0.4,0,0.7,0.1,1,0.4c0.3,0.3,0.4,0.6,0.4,1c0,0.4-0.1,0.7-0.4,1C163.6,13.2,163.3,13.3,162.9,13.3z M163.9,29.9h-2.1V16.7h2.1
		V29.9z"/>
	<path class="st6" d="M178.9,23.8h-9.4c0,1.5,0.4,2.6,1.2,3.4s1.8,1.2,3.1,1.2c1.5,0,2.9-0.5,4.1-1.5v2c-1.2,0.8-2.7,1.3-4.6,1.3
		c-1.9,0-3.3-0.6-4.4-1.8c-1.1-1.2-1.6-2.9-1.6-5.1c0-2.1,0.6-3.7,1.8-5c1.2-1.3,2.6-1.9,4.4-1.9c1.7,0,3.1,0.6,4,1.7
		c1,1.1,1.4,2.7,1.4,4.7V23.8z M176.7,22c0-1.2-0.3-2.2-0.9-2.9c-0.6-0.7-1.4-1-2.4-1c-1,0-1.9,0.4-2.6,1.1
		c-0.7,0.7-1.1,1.7-1.3,2.8H176.7z"/>
	<path class="st6" d="M198.8,16.7l-4,13.3h-2.2l-2.7-9.5c-0.1-0.4-0.2-0.8-0.2-1.2h-0.1c0,0.3-0.1,0.7-0.3,1.2l-3,9.5h-2.1l-4-13.3
		h2.2l2.7,10c0.1,0.3,0.1,0.7,0.2,1.2h0.1c0-0.4,0.1-0.8,0.2-1.2l3.1-9.9h1.9l2.7,10c0.1,0.3,0.2,0.7,0.2,1.2h0.1
		c0-0.3,0.1-0.7,0.2-1.2l2.7-10H198.8z"/>
</g>
</svg>
