<?xml version="1.0" encoding="utf-8"?>
<!-- Generator: Adobe Illustrator 24.1.3, SVG Export Plug-In . SVG Version: 6.00 Build 0)  -->
<svg version="1.1" id="Layer_1" xmlns="http://www.w3.org/2000/svg" xmlns:xlink="http://www.w3.org/1999/xlink" x="0px" y="0px"
	 viewBox="0 0 206 40" style="enable-background:new 0 0 206 40;" xml:space="preserve">
<style type="text/css">
	.st0{fill:#212934;}
	.st1{enable-background:new    ;}
	.st2{fill:#B2BAC1;}
	.st3{fill:#CED5DC;}
	.st4{fill:#E11E19;}
	.st5{fill:#A8A8A8;}
</style>
<g>
	<path class="st0" d="M72.7,31.6c-1.5,0.8-3.5,1.2-5.8,1.2c-3,0-5.4-0.9-7.2-2.8c-1.8-1.9-2.7-4.3-2.7-7.4c0-3.3,1-5.9,3-8
		c2-2,4.6-3,7.7-3c2,0,3.6,0.3,4.9,0.8v3.4c-1.4-0.8-2.9-1.2-4.6-1.2c-2.2,0-4,0.7-5.4,2.1c-1.4,1.4-2.1,3.3-2.1,5.7
		c0,2.3,0.6,4.1,1.9,5.4c1.3,1.3,3,2,5.1,2c1.9,0,3.6-0.5,5-1.4V31.6z"/>
	<path class="st0" d="M80.1,32.5h-3.5V11.9h3.5V32.5z"/>
	<path class="st0" d="M85.2,32.5V11.9h6.5c2,0,3.6,0.4,4.7,1.3c1.2,0.9,1.7,2,1.7,3.4c0,1.2-0.3,2.2-1,3c-0.7,0.9-1.6,1.5-2.7,1.8
		v0.1c1.4,0.2,2.5,0.7,3.4,1.6c0.8,0.9,1.3,2,1.3,3.4c0,1.8-0.7,3.2-2.1,4.3c-1.4,1.1-3.1,1.6-5.2,1.6H85.2z M88.6,14.7v5.8h2.2
		c1.2,0,2.1-0.3,2.8-0.8c0.7-0.6,1-1.3,1-2.4c0-1.8-1.2-2.6-3.5-2.6H88.6z M88.6,23.3v6.5h2.9c1.3,0,2.3-0.3,2.9-0.9
		c0.7-0.6,1-1.4,1-2.4c0-2.1-1.5-3.2-4.4-3.2H88.6z"/>
	<path class="st0" d="M121.1,31.8c-1.2,0.7-2.6,1-4.2,1c-2.2,0-3.9-0.7-5.3-2c-1.3-1.4-2-3.1-2-5.3c0-2.4,0.7-4.4,2.2-5.8
		s3.4-2.2,5.8-2.2c1.3,0,2.5,0.2,3.5,0.7v3.1c-1-0.8-2.1-1.1-3.3-1.1c-1.4,0-2.6,0.5-3.5,1.4c-0.9,1-1.3,2.2-1.3,3.7
		c0,1.5,0.4,2.7,1.3,3.6c0.8,0.9,2,1.3,3.4,1.3c1.2,0,2.3-0.4,3.4-1.3V31.8z"/>
	<path class="st0" d="M130.9,32.8c-2.3,0-4.1-0.7-5.4-2.1c-1.4-1.4-2-3.2-2-5.5c0-2.5,0.7-4.4,2.1-5.8c1.4-1.4,3.3-2.1,5.7-2.1
		c2.3,0,4.1,0.7,5.4,2c1.3,1.3,1.9,3.2,1.9,5.6c0,2.3-0.7,4.2-2.1,5.6C135.1,32.1,133.2,32.8,130.9,32.8z M131.1,20.1
		c-1.3,0-2.3,0.5-3.1,1.4c-0.8,0.9-1.1,2.2-1.1,3.8c0,1.5,0.4,2.7,1.1,3.6c0.8,0.9,1.8,1.3,3.1,1.3c1.3,0,2.3-0.4,3-1.3
		c0.7-0.9,1.1-2.1,1.1-3.7c0-1.6-0.4-2.9-1.1-3.7C133.4,20.6,132.4,20.1,131.1,20.1z"/>
	<path class="st0" d="M141.3,31.7v-3.5c0.3,0.3,0.7,0.5,1.1,0.8s0.9,0.4,1.4,0.6c0.5,0.2,1,0.3,1.5,0.4s0.9,0.1,1.3,0.1
		c1.4,0,2.5-0.2,3.2-0.7c0.7-0.5,1.1-1.2,1.1-2.1c0-0.5-0.1-0.9-0.4-1.3c-0.2-0.4-0.6-0.7-1-1c-0.4-0.3-0.9-0.6-1.5-0.9
		c-0.6-0.3-1.2-0.6-1.8-0.9c-0.7-0.4-1.3-0.8-1.9-1.1s-1.1-0.8-1.6-1.3c-0.4-0.5-0.8-1-1-1.6c-0.3-0.6-0.4-1.3-0.4-2
		c0-1,0.2-1.8,0.7-2.5s1-1.3,1.7-1.8c0.7-0.5,1.5-0.8,2.4-1c0.9-0.2,1.8-0.3,2.8-0.3c2.1,0,3.7,0.2,4.7,0.7v3.4
		c-1.2-0.8-2.7-1.3-4.5-1.3c-0.5,0-1,0-1.5,0.1c-0.5,0.1-1,0.3-1.3,0.5c-0.4,0.2-0.7,0.5-1,0.8c-0.2,0.3-0.4,0.8-0.4,1.2
		c0,0.5,0.1,0.9,0.3,1.2c0.2,0.3,0.5,0.6,0.8,0.9c0.4,0.3,0.8,0.5,1.3,0.8c0.5,0.3,1.1,0.5,1.8,0.9c0.7,0.4,1.4,0.8,2,1.2
		c0.6,0.4,1.2,0.9,1.7,1.4c0.5,0.5,0.9,1,1.1,1.7c0.3,0.6,0.4,1.3,0.4,2.1c0,1-0.2,1.9-0.6,2.6c-0.4,0.7-1,1.3-1.7,1.7
		c-0.7,0.4-1.5,0.8-2.5,1c-0.9,0.2-1.9,0.3-2.9,0.3c-0.3,0-0.8,0-1.3-0.1c-0.5-0.1-1-0.1-1.5-0.2c-0.5-0.1-1-0.2-1.5-0.4
		C142,32,141.6,31.8,141.3,31.7z"/>
	<path class="st0" d="M169.9,17.8l-6.6,17c-1.4,3-3.3,4.6-5.8,4.6c-0.7,0-1.3-0.1-1.7-0.2v-2.8c0.5,0.2,1,0.3,1.4,0.3
		c1.2,0,2.2-0.6,2.8-1.8l1-2.4l-5.8-14.6h3.7l3.5,10.7c0,0.1,0.1,0.5,0.3,1.1h0.1c0-0.2,0.1-0.6,0.3-1l3.7-10.7H169.9z"/>
	<path class="st0" d="M171.2,32v-3.1c1.2,0.9,2.6,1.4,4.1,1.4c2,0,3-0.6,3-1.8c0-0.3-0.1-0.6-0.3-0.9s-0.4-0.4-0.7-0.6
		c-0.3-0.2-0.6-0.3-1-0.5s-0.8-0.3-1.3-0.5c-0.6-0.2-1.1-0.5-1.6-0.8s-0.9-0.6-1.2-0.9c-0.3-0.3-0.6-0.7-0.7-1.2
		c-0.2-0.4-0.2-0.9-0.2-1.5c0-0.7,0.2-1.3,0.5-1.9c0.3-0.5,0.8-1,1.3-1.4s1.2-0.6,1.9-0.8c0.7-0.2,1.5-0.3,2.2-0.3
		c1.4,0,2.6,0.2,3.6,0.6V21c-1-0.7-2.2-1.1-3.6-1.1c-0.4,0-0.8,0-1.1,0.1c-0.3,0.1-0.6,0.2-0.9,0.4c-0.2,0.2-0.4,0.3-0.6,0.6
		s-0.2,0.5-0.2,0.7c0,0.3,0.1,0.6,0.2,0.8s0.3,0.4,0.6,0.6s0.6,0.3,0.9,0.5c0.4,0.1,0.8,0.3,1.3,0.5c0.6,0.3,1.2,0.5,1.7,0.8
		c0.5,0.3,0.9,0.6,1.3,0.9c0.4,0.3,0.6,0.7,0.8,1.2c0.2,0.4,0.3,1,0.3,1.6c0,0.7-0.2,1.4-0.5,1.9c-0.3,0.6-0.8,1-1.4,1.4
		s-1.2,0.6-2,0.8s-1.5,0.3-2.4,0.3C173.7,32.8,172.4,32.6,171.2,32z"/>
</g>
<g>
	<g class="st1">
		<path class="st2" d="M39.3,25.7c-0.4-0.8-1-1.4-1.8-1.8l-2-1.1c1.5,0.8,2.4,2.4,2.5,4.4c0,0.4,0,0.8-0.1,1.2
			c0,0.1-0.1,0.3-0.1,0.4c-0.1,0.2-0.1,0.5-0.2,0.7c-0.1,0.3-0.3,0.7-0.4,1c0,0.1-0.1,0.1-0.1,0.2c-0.1,0.2-0.3,0.5-0.5,0.7
			c-0.1,0.1-0.1,0.1-0.2,0.2c-0.2,0.3-0.4,0.5-0.7,0.7c0,0-0.1,0-0.1,0.1c-0.2,0.2-0.5,0.4-0.7,0.5c-0.1,0.1-0.2,0.1-0.4,0.2
			c-0.2,0.1-0.4,0.2-0.6,0.3c-0.1,0-0.2,0.1-0.3,0.1c-0.3,0.1-0.6,0.2-1,0.2c0,0,0,0-0.1,0l0,0c-0.3,0-0.6,0-0.9,0
			c-0.1,0-0.2,0-0.3,0c-0.2,0-0.4,0-0.6-0.1c-0.1,0-0.2,0-0.3-0.1c-0.2-0.1-0.4-0.1-0.5-0.2c-0.1,0-0.2-0.1-0.3-0.1l2,1.1
			c0.1,0,0.1,0.1,0.2,0.1c0.1,0,0.1,0,0.2,0.1c0.2,0.1,0.4,0.1,0.5,0.2c0,0,0.1,0,0.1,0.1c0,0,0.1,0,0.1,0c0.2,0,0.4,0.1,0.6,0.1
			c0.1,0,0.2,0,0.3,0c0.3,0,0.6,0,0.9,0c0,0,0,0,0.1,0c0.3-0.1,0.6-0.1,1-0.2c0.1,0,0.2-0.1,0.3-0.1c0.1,0,0.2-0.1,0.3-0.1
			c0.1-0.1,0.2-0.1,0.3-0.2c0.1-0.1,0.3-0.1,0.4-0.2c0.1,0,0.1-0.1,0.2-0.1c0.2-0.1,0.4-0.3,0.5-0.4c0,0,0.1,0,0.1-0.1c0,0,0,0,0,0
			c0.2-0.2,0.4-0.4,0.5-0.5c0-0.1,0.1-0.1,0.1-0.2c0.1-0.1,0.1-0.1,0.2-0.2c0.1-0.1,0.1-0.2,0.2-0.2c0.1-0.1,0.2-0.3,0.3-0.4
			c0-0.1,0.1-0.1,0.1-0.2c0,0,0,0,0-0.1c0.2-0.3,0.3-0.6,0.4-0.9c0,0,0,0,0,0c0.1-0.2,0.1-0.5,0.2-0.7c0-0.1,0.1-0.3,0.1-0.4
			c0.1-0.4,0.1-0.8,0.1-1.2C39.9,27.4,39.7,26.5,39.3,25.7z"/>
		<path class="st3" d="M36,20.1c0.3,0,0.7,0,1,0.1c0.1,0,0.1,0,0.2,0c0.3,0.1,0.6,0.1,0.9,0.2c0,0,0.1,0,0.1,0
			c0.3,0.1,0.7,0.3,1,0.4l-2-1.1c-0.1,0-0.2-0.1-0.3-0.1c-0.2-0.1-0.5-0.2-0.7-0.3c0,0-0.1,0-0.1,0c-0.2-0.1-0.3-0.1-0.5-0.1
			c-0.1,0-0.3-0.1-0.4-0.1c-0.1,0-0.1,0-0.2,0c-0.3-0.1-0.7-0.1-1-0.1c-0.1,0-0.1,0-0.2,0c-0.4,0-0.7,0-1.1,0.1c0,0-0.1,0-0.1,0
			c-0.4,0.1-0.7,0.1-1.1,0.2c-0.1,0-0.2,0.1-0.3,0.1c-0.3,0.1-0.6,0.2-0.8,0.3c0,0-0.1,0-0.2,0.1c0,0,0,0,0,0
			c-0.4,0.2-0.8,0.4-1.2,0.7c0,0-0.1,0-0.1,0.1c0,0-0.1,0.1-0.1,0.1c-0.3,0.2-0.6,0.5-0.9,0.7c0,0,0,0,0,0c0,0-0.1,0.1-0.1,0.1
			c-0.2,0.2-0.4,0.4-0.7,0.7c0,0-0.1,0.1-0.1,0.1c0,0-0.1,0.1-0.1,0.1c-0.2,0.2-0.4,0.4-0.5,0.7c0,0.1-0.1,0.1-0.1,0.1
			c0,0,0,0,0,0.1c-0.2,0.3-0.4,0.6-0.6,1c0,0,0,0,0,0.1c0,0,0,0.1-0.1,0.1c-0.2,0.4-0.4,0.8-0.5,1.2c0,0,0,0,0,0.1c0,0,0,0,0,0
			c-0.1,0.2-0.1,0.3-0.2,0.5c0,0.1-0.1,0.2-0.1,0.4c0,0.2-0.1,0.4-0.1,0.5c0,0.1-0.1,0.2-0.1,0.4c0,0.2-0.1,0.4-0.1,0.6
			c0,0.1,0,0.2,0,0.3c0,0.3,0,0.6,0,0.9c0,3.2,1.6,5.7,3.9,6.9l2,1.1c-2.3-1.3-3.8-3.8-3.9-6.9c0-0.3,0-0.6,0-0.9c0-0.1,0-0.2,0-0.3
			c0-0.2,0-0.4,0.1-0.6c0-0.1,0.1-0.2,0.1-0.4c0-0.2,0.1-0.4,0.1-0.5c0-0.1,0.1-0.3,0.1-0.4c0.1-0.2,0.1-0.3,0.2-0.5
			c0,0,0-0.1,0-0.1c0.2-0.4,0.3-0.8,0.5-1.2c0-0.1,0.1-0.1,0.1-0.2c0.2-0.3,0.4-0.7,0.6-1c0-0.1,0.1-0.1,0.2-0.2
			c0.2-0.2,0.3-0.4,0.5-0.7c0.1-0.1,0.1-0.2,0.2-0.2c0.2-0.2,0.4-0.5,0.7-0.7c0,0,0.1-0.1,0.1-0.1c0.3-0.3,0.6-0.5,0.9-0.7
			c0.1,0,0.1-0.1,0.2-0.1c0.4-0.3,0.8-0.5,1.2-0.7c0.1,0,0.1-0.1,0.2-0.1c0.3-0.1,0.5-0.2,0.8-0.3c0.1,0,0.2-0.1,0.3-0.1
			c0.3-0.1,0.7-0.2,1.1-0.2c0,0,0.1,0,0.1,0c0.4-0.1,0.7-0.1,1.1-0.1C35.8,20.1,35.9,20.1,36,20.1z"/>
		<g>
			<path class="st4" d="M34.7,20.2c4.6-0.6,8.3,2.8,8.3,7.7c0,5-3.7,9.5-8.2,10.2c0,0-0.1,0-0.1,0c-4.5,0.6-8.3-2.8-8.3-7.7
				C26.3,25.5,30,20.9,34.7,20.2C34.6,20.2,34.6,20.2,34.7,20.2z M34.7,34.9c2.9-0.4,5.3-3.4,5.2-6.5c0-3.1-2.4-5.3-5.3-4.9
				c0,0,0,0-0.1,0c-2.9,0.4-5.3,3.4-5.2,6.5C29.4,33.1,31.8,35.3,34.7,34.9C34.7,34.9,34.7,34.9,34.7,34.9"/>
		</g>
	</g>
	<g class="st1">
		<path class="st3" d="M9,29.4c0.1,0,0.3,0,0.4,0.1c0.1,0,0.1,0,0.2,0c0.1,0,0.2,0.1,0.4,0.1c0.1,0,0.1,0.1,0.2,0.1l-2-1.1
			c0,0-0.1,0-0.1-0.1c0,0-0.1,0-0.1,0c-0.1-0.1-0.2-0.1-0.4-0.1c0,0-0.1,0-0.1,0c0,0-0.1,0-0.1,0c-0.1,0-0.3,0-0.4-0.1
			c-0.1,0-0.1,0-0.2,0c-0.2,0-0.4,0-0.6,0c0,0,0,0,0,0c-0.2,0-0.4,0.1-0.6,0.2c-0.1,0-0.1,0-0.2,0.1c-0.1,0-0.1,0-0.2,0.1
			c-0.1,0-0.1,0.1-0.2,0.1c-0.1,0-0.2,0.1-0.2,0.1c0,0-0.1,0-0.1,0.1c-0.1,0.1-0.3,0.2-0.4,0.3c0,0,0,0,0,0c0,0,0,0,0,0
			c-0.1,0.1-0.2,0.2-0.4,0.4c0,0-0.1,0.1-0.1,0.1c0,0-0.1,0.1-0.1,0.1c0,0.1-0.1,0.1-0.1,0.2c-0.1,0.1-0.1,0.2-0.2,0.3
			c0,0-0.1,0.1-0.1,0.1c0,0,0,0,0,0c-0.1,0.2-0.2,0.4-0.3,0.6c0,0,0,0,0,0c-0.1,0.2-0.1,0.3-0.1,0.5c0,0.1-0.1,0.2-0.1,0.3
			c0,0.3-0.1,0.5-0.1,0.8c0,1.3,0.7,2.4,1.6,3l2,1.1c-1-0.5-1.6-1.6-1.6-3c0-0.3,0-0.5,0.1-0.8c0-0.1,0.1-0.2,0.1-0.3
			c0-0.2,0.1-0.3,0.1-0.5C5,32,5.1,31.8,5.3,31.6c0,0,0.1-0.1,0.1-0.1c0.1-0.2,0.2-0.3,0.3-0.5c0,0,0.1-0.1,0.1-0.1
			c0.1-0.2,0.3-0.3,0.5-0.5c0,0,0,0,0,0c0.1-0.1,0.3-0.2,0.5-0.4c0.1-0.1,0.2-0.1,0.2-0.1c0.1-0.1,0.3-0.1,0.4-0.2
			c0.1,0,0.1,0,0.2-0.1c0.2-0.1,0.4-0.1,0.6-0.2c0,0,0,0,0,0c0.2,0,0.4,0,0.6,0C8.9,29.4,8.9,29.4,9,29.4z"/>
		<g>
			<path class="st4" d="M8.2,29.4c1.9-0.3,3.5,1.2,3.6,3.3c0,2.1-1.6,4.1-3.5,4.4c0,0,0,0,0,0c-1.9,0.3-3.5-1.2-3.6-3.3
				C4.7,31.7,6.2,29.7,8.2,29.4C8.2,29.4,8.2,29.4,8.2,29.4z"/>
		</g>
	</g>
	<g class="st1">
		<g>
			<polygon class="st5" points="37.6,4.4 37.6,4.4 37.6,4.4 			"/>
			<path class="st3" d="M35.6,3.4c0,0-0.1,0-0.1-0.1c0,0-0.1,0-0.1,0c-0.1-0.1-0.2-0.1-0.4-0.1c0,0-0.1,0-0.1,0c0,0-0.1,0-0.1,0
				c-0.1,0-0.2,0-0.4-0.1c-0.1,0-0.1,0-0.2,0c-0.2,0-0.4,0-0.6,0c0,0,0,0,0,0c-0.2,0-0.4,0.1-0.6,0.2c-0.1,0-0.1,0-0.2,0.1
				c-0.1,0-0.1,0-0.2,0.1c-0.1,0-0.1,0.1-0.2,0.1c-0.1,0-0.2,0.1-0.3,0.1c0,0-0.1,0-0.1,0.1C32,3.8,31.9,3.9,31.8,4c0,0,0,0-0.1,0
				c0,0,0,0,0,0c-0.1,0.1-0.2,0.2-0.4,0.4c0,0-0.1,0.1-0.1,0.1c0,0-0.1,0.1-0.1,0.1c0,0.1-0.1,0.1-0.1,0.2c-0.1,0.1-0.1,0.2-0.2,0.3
				c0,0-0.1,0.1-0.1,0.1c0,0,0,0,0,0c-0.1,0.2-0.2,0.4-0.3,0.6c0,0,0,0,0,0c-0.1,0.2-0.1,0.3-0.1,0.5c0,0.1-0.1,0.2-0.1,0.3
				c0,0.3-0.1,0.5-0.1,0.8c0,1.3,0.7,2.4,1.6,3l2,1.1c-1-0.5-1.6-1.6-1.6-3c0-0.3,0-0.5,0.1-0.8c0-0.1,0-0.2,0.1-0.3
				c0-0.2,0.1-0.3,0.1-0.5c0.1-0.2,0.2-0.4,0.3-0.7c0,0,0.1-0.1,0.1-0.1C32.9,6,33,5.8,33.1,5.7c0,0,0.1-0.1,0.1-0.1
				c0.1-0.2,0.3-0.3,0.5-0.5c0,0,0,0,0.1,0c0.1-0.1,0.3-0.2,0.5-0.3c0.1-0.1,0.2-0.1,0.3-0.1c0.1-0.1,0.3-0.1,0.4-0.2
				c0.1,0,0.1,0,0.2-0.1c0.2-0.1,0.4-0.1,0.6-0.2c0,0,0,0,0,0c0.2,0,0.4,0,0.6,0c0.1,0,0.1,0,0.2,0c0.1,0,0.3,0,0.4,0.1
				c0.1,0,0.1,0,0.2,0c0.1,0,0.2,0.1,0.4,0.1c0.1,0,0.1,0.1,0.2,0.1l0,0L35.6,3.4z"/>
		</g>
		<g>
			<path class="st4" d="M35.7,4.1c1.9-0.3,3.5,1.2,3.5,3.3c0,2.1-1.6,4.1-3.5,4.4c0,0,0,0,0,0c-1.9,0.3-3.5-1.2-3.5-3.3
				C32.1,6.4,33.7,4.4,35.7,4.1C35.7,4.1,35.7,4.1,35.7,4.1z"/>
		</g>
	</g>
	<g class="st1">
		<g>
			<polygon class="st2" points="24.9,23.3 22.9,22.2 19.6,19.1 21.6,20.2 			"/>
		</g>
		<g>
			<polygon class="st3" points="21.6,20.2 19.6,19.1 20.8,17.7 22.8,18.7 			"/>
		</g>
		<g>
			<polygon class="st4" points="22.8,18.7 26.1,21.8 24.9,23.3 21.6,20.2 			"/>
		</g>
	</g>
	<g class="st1">
		<path class="st3" d="M17.4,10.5c0,0-0.1,0-0.1-0.1c0,0-0.1,0-0.1,0c-0.1-0.1-0.2-0.1-0.4-0.1c0,0-0.1,0-0.1,0c0,0-0.1,0-0.1,0
			c-0.1,0-0.3,0-0.4-0.1c-0.1,0-0.1,0-0.2,0c-0.2,0-0.4,0-0.6,0c0,0,0,0,0,0c-0.2,0-0.4,0.1-0.6,0.2c-0.1,0-0.1,0-0.2,0.1
			c-0.1,0-0.1,0-0.2,0.1c-0.1,0-0.1,0.1-0.2,0.1c-0.1,0-0.2,0.1-0.3,0.1c0,0-0.1,0-0.1,0.1c-0.1,0.1-0.2,0.2-0.4,0.3c0,0,0,0-0.1,0
			c0,0,0,0,0,0c-0.1,0.1-0.2,0.2-0.4,0.4c0,0-0.1,0.1-0.1,0.1c0,0-0.1,0.1-0.1,0.1c0,0.1-0.1,0.1-0.1,0.2c-0.1,0.1-0.1,0.2-0.2,0.3
			c0,0-0.1,0.1-0.1,0.1c0,0,0,0,0,0c-0.1,0.2-0.2,0.4-0.3,0.6c0,0,0,0,0,0c-0.1,0.2-0.1,0.3-0.1,0.5c0,0.1-0.1,0.2-0.1,0.3
			c0,0.3-0.1,0.5-0.1,0.8c0,1.3,0.7,2.4,1.6,3l2,1.1c-1-0.5-1.6-1.6-1.6-3c0-0.3,0-0.5,0.1-0.8c0-0.1,0.1-0.2,0.1-0.3
			c0-0.2,0.1-0.3,0.1-0.5c0.1-0.2,0.2-0.4,0.3-0.7c0,0,0.1-0.1,0.1-0.1c0.1-0.2,0.2-0.3,0.3-0.5c0,0,0.1-0.1,0.1-0.1
			c0.1-0.2,0.3-0.3,0.5-0.5c0,0,0,0,0.1,0c0.1-0.1,0.3-0.2,0.5-0.3c0.1-0.1,0.2-0.1,0.3-0.1c0.1-0.1,0.3-0.1,0.4-0.2
			c0.1,0,0.1,0,0.2-0.1c0.2-0.1,0.4-0.1,0.6-0.2c0,0,0,0,0,0c0.2,0,0.4,0,0.6,0c0.1,0,0.1,0,0.2,0c0.1,0,0.3,0,0.4,0.1
			c0.1,0,0.1,0,0.2,0c0.1,0,0.2,0.1,0.4,0.1c0.1,0,0.1,0.1,0.2,0.1L17.4,10.5z"/>
		<g>
			<path class="st4" d="M17.5,11.3c1.9-0.3,3.5,1.2,3.5,3.3c0,2.1-1.5,4.1-3.5,4.4c0,0,0,0,0,0c-1.9,0.3-3.5-1.2-3.5-3.3
				C14,13.5,15.5,11.6,17.5,11.3C17.5,11.3,17.5,11.3,17.5,11.3z"/>
		</g>
	</g>
	<g class="st1">
		<g>
			<polygon class="st2" points="14,33.5 12,32.4 12,30.4 14,31.5 			"/>
		</g>
		<g>
			<polygon class="st3" points="14,31.5 12,30.4 22.3,28.9 24.3,30 			"/>
		</g>
		<g>
			<polygon class="st4" points="24.3,30 24.3,32.1 14,33.5 14,31.5 			"/>
		</g>
	</g>
	<g class="st1">
		<g>
			<polygon class="st3" points="34.9,17.9 32.9,17 32.9,15.4 34.9,16.4 			"/>
		</g>
		<g>
			<polygon class="st2" points="34.9,16.4 32.9,15.4 34.5,15.2 36.5,16.2 			"/>
		</g>
		<g>
			<polygon class="st4" points="36.5,16.2 36.5,17.7 34.9,17.9 34.9,16.4 			"/>
		</g>
	</g>
	<g class="st1">
		<g>
			<polygon class="st3" points="34.9,15.6 32.9,14.5 32.9,12.7 34.9,13.8 			"/>
		</g>
		<g>
			<polygon class="st2" points="34.9,13.8 32.9,12.7 34.5,12.5 36.5,13.6 			"/>
		</g>
		<g>
			<polygon class="st4" points="36.5,13.6 36.5,15.4 34.9,15.6 34.9,13.8 			"/>
		</g>
	</g>
</g>
</svg>
