<?xml version="1.0" encoding="utf-8"?>
<!-- Generator: Adobe Illustrator 24.1.3, SVG Export Plug-In . SVG Version: 6.00 Build 0)  -->
<svg version="1.1" id="Layer_1" xmlns="http://www.w3.org/2000/svg" xmlns:xlink="http://www.w3.org/1999/xlink" x="0px" y="0px"
	 viewBox="0 0 206 40" style="enable-background:new 0 0 206 40;" xml:space="preserve">
<style type="text/css">
	.st0{enable-background:new    ;}
	.st1{fill:none;}
	.st2{fill:#B2BAC1;}
	.st3{fill:#E11E19;}
	.st4{fill:#CED5DC;}
	.st5{fill:#BEC8D2;}
	.st6{fill:#212934;}
</style>
<g>
	<g class="st0">
		<path class="st1" d="M28,11.3l0.4,0.2c2.3,1.2,4.8,3.1,7.8,5.7L35.8,17C32.8,14.4,30.3,12.5,28,11.3z"/>
		<path class="st2" d="M36.7,18C36.7,18,36.7,18,36.7,18c0-0.1,0-0.2-0.1-0.3c0,0,0,0,0-0.1c0-0.1-0.1-0.1-0.1-0.2c0,0,0,0,0-0.1
			c-0.1-0.1-0.1-0.1-0.2-0.2c-3-2.6-5.5-4.5-7.8-5.7L28,11.3c2.3,1.2,4.8,3.1,7.8,5.7c0.1,0.1,0.1,0.1,0.2,0.2c0,0,0,0,0,0.1
			c0,0.1,0.1,0.1,0.1,0.2c0,0,0,0,0,0.1c0,0.1,0.1,0.2,0.1,0.3c0,0,0,0,0,0c0,0.1,0,0.2,0,0.3c0,0,0,0.1,0,0.1c0,0.1,0,0.1,0,0.2
			c0,0,0,0.1,0,0.1c0,0.1,0,0.2-0.1,0.3c0,0,0,0,0,0c0,0.1-0.1,0.2-0.1,0.3c0,0,0,0,0,0.1c-0.1,0.1-0.1,0.2-0.2,0.2
			c-0.3,0.4-0.6,0.7-0.9,1.1c-0.1,0.1-0.2,0.2-0.3,0.3c-0.2,0.2-0.4,0.4-0.6,0.7c-0.2,0.2-0.4,0.4-0.5,0.6c-0.2,0.2-0.3,0.3-0.5,0.5
			c-0.2,0.2-0.4,0.4-0.5,0.6c-0.2,0.2-0.3,0.3-0.5,0.5c-0.2,0.2-0.4,0.3-0.5,0.5c-0.2,0.1-0.3,0.3-0.5,0.4c-0.2,0.2-0.4,0.3-0.5,0.5
			c-0.2,0.1-0.3,0.3-0.5,0.4c-0.1,0.1-0.2,0.2-0.3,0.2c-0.2,0.2-0.4,0.3-0.6,0.5c-0.1,0.1-0.2,0.2-0.3,0.2c-0.2,0.2-0.5,0.4-0.7,0.5
			C28.1,26.9,28,27,28,27c-0.3,0.2-0.6,0.4-0.8,0.6c-0.1,0-0.1,0.1-0.2,0.1c-0.2,0.1-0.4,0.3-0.6,0.4c-0.1,0.1-0.2,0.1-0.3,0.1
			c-0.2,0.1-0.4,0.2-0.6,0.4c-0.1,0-0.1,0.1-0.2,0.1c-0.3,0.1-0.5,0.3-0.8,0.4c-0.2,0.1-0.3,0.1-0.5,0.2c-0.1,0.1-0.3,0.1-0.4,0.2
			c-0.2,0.1-0.4,0.1-0.5,0.2c-0.1,0-0.2,0.1-0.4,0.1c-0.2,0.1-0.4,0.1-0.6,0.2c-0.1,0-0.2,0.1-0.3,0.1c-0.3,0.1-0.6,0.1-0.9,0.2
			c-0.3,0-0.6,0.1-0.8,0.1c0,0-0.1,0-0.1,0c-0.3,0-0.5,0-0.8,0c-0.1,0-0.1,0-0.2,0c-0.3,0-0.5,0-0.8-0.1c0,0-0.1,0-0.1,0
			c-0.3,0-0.6-0.1-0.8-0.1c0,0,0,0,0,0c-0.3-0.1-0.5-0.1-0.8-0.2c-0.1,0-0.1,0-0.2-0.1c-0.3-0.1-0.6-0.2-0.8-0.3c0,0-0.1,0-0.1,0
			c-0.3-0.1-0.5-0.2-0.8-0.3c-0.1,0-0.2-0.1-0.2-0.1c-0.3-0.1-0.6-0.3-0.8-0.4l0.4,0.2c0.2,0.1,0.4,0.2,0.6,0.3
			c0.1,0,0.1,0.1,0.2,0.1c0.1,0,0.2,0.1,0.2,0.1c0.3,0.1,0.5,0.2,0.8,0.3c0,0,0.1,0,0.1,0c0.3,0.1,0.6,0.2,0.8,0.3
			c0.1,0,0.1,0,0.2,0.1c0.1,0,0.2,0.1,0.3,0.1c0.2,0,0.3,0.1,0.5,0.1c0,0,0,0,0,0c0.3,0.1,0.6,0.1,0.8,0.1c0,0,0.1,0,0.1,0
			c0.3,0,0.5,0.1,0.8,0.1c0.1,0,0.1,0,0.2,0c0.3,0,0.5,0,0.8,0c0,0,0.1,0,0.1,0c0.3,0,0.6,0,0.8-0.1c0.3,0,0.6-0.1,0.9-0.2
			c0.1,0,0.2-0.1,0.3-0.1c0.2,0,0.4-0.1,0.6-0.2c0.1,0,0.2-0.1,0.4-0.1c0.2-0.1,0.4-0.1,0.5-0.2c0.1,0,0.3-0.1,0.4-0.2
			c0.2-0.1,0.3-0.1,0.5-0.2c0,0,0,0,0.1,0c0.2-0.1,0.5-0.2,0.7-0.3c0.1,0,0.1-0.1,0.2-0.1c0.2-0.1,0.4-0.2,0.6-0.4
			c0.1,0,0.2-0.1,0.3-0.1c0.2-0.1,0.4-0.3,0.6-0.4c0.1,0,0.1-0.1,0.2-0.1c0,0,0.1,0,0.1,0c0.2-0.2,0.5-0.3,0.8-0.5
			c0.1,0,0.1-0.1,0.2-0.1c0.2-0.2,0.5-0.3,0.7-0.5c0.1-0.1,0.2-0.1,0.3-0.2c0.2-0.2,0.4-0.3,0.6-0.5c0.1-0.1,0.2-0.2,0.3-0.2
			c0.1,0,0.1-0.1,0.2-0.1c0.1-0.1,0.2-0.2,0.3-0.3c0.2-0.2,0.3-0.3,0.5-0.5c0.2-0.1,0.3-0.3,0.5-0.4c0.2-0.2,0.4-0.3,0.5-0.5
			c0.2-0.2,0.3-0.3,0.5-0.5c0.2-0.2,0.4-0.4,0.5-0.6c0.2-0.2,0.3-0.3,0.5-0.5c0.2-0.2,0.4-0.4,0.5-0.6c0.1-0.1,0.1-0.2,0.2-0.2
			c0.1-0.1,0.2-0.3,0.4-0.4c0.1-0.1,0.2-0.2,0.3-0.3c0.3-0.4,0.6-0.7,0.9-1.1c0,0,0,0,0,0c0,0,0.1-0.1,0.1-0.2c0,0,0-0.1,0.1-0.1
			c0,0,0,0,0-0.1c0,0,0,0,0,0c0-0.1,0.1-0.2,0.1-0.2c0,0,0,0,0,0c0,0,0,0,0,0c0-0.1,0.1-0.2,0.1-0.3c0,0,0-0.1,0-0.1
			c0-0.1,0-0.1,0-0.2c0,0,0-0.1,0-0.1C36.7,18.2,36.7,18.1,36.7,18z"/>
		<g>
			<path class="st3" d="M21.2,12.4c0.5-0.1,1-0.1,1.6,0c4,0.3,6.6,4.2,5.7,8.6c-0.2,1-0.6,2-1.1,2.9l-4.2-1.7l1.5,4.6
				c-1.1,0.8-2.3,1.3-3.5,1.4c-0.5,0.1-1,0.1-1.6,0c-4-0.3-6.6-4.2-5.7-8.6C14.6,15.8,17.7,12.9,21.2,12.4z"/>
		</g>
		<path class="st4" d="M23.5,12.5c0.1,0,0.3,0.1,0.4,0.1c0.1,0,0.2,0.1,0.3,0.1c0.1,0,0.2,0.1,0.3,0.1c0.1,0,0.2,0.1,0.3,0.1
			c0.1,0.1,0.3,0.1,0.4,0.2l-0.4-0.2c-0.1,0-0.1-0.1-0.2-0.1c-0.1,0-0.1,0-0.2-0.1c-0.1,0-0.2-0.1-0.3-0.1c-0.1,0-0.2-0.1-0.3-0.1
			c-0.1,0-0.2-0.1-0.3-0.1c0,0-0.1,0-0.1,0c-0.1,0-0.2,0-0.3-0.1c-0.1,0-0.1,0-0.2,0c-0.2,0-0.4-0.1-0.6-0.1c-0.5,0-1,0-1.6,0
			c-0.2,0-0.4,0.1-0.6,0.1c-0.1,0-0.1,0-0.2,0c-0.1,0-0.3,0.1-0.4,0.1c-0.1,0-0.1,0-0.2,0.1c-0.1,0-0.2,0.1-0.4,0.1
			c-0.1,0-0.2,0.1-0.2,0.1c-0.1,0-0.1,0-0.2,0.1c-0.1,0-0.1,0.1-0.2,0.1c-0.1,0.1-0.2,0.1-0.3,0.2c-0.1,0.1-0.2,0.1-0.3,0.2
			c-0.1,0.1-0.2,0.1-0.3,0.2c0,0-0.1,0.1-0.2,0.1c0,0-0.1,0.1-0.1,0.1c-0.1,0-0.1,0.1-0.2,0.1c-0.1,0.1-0.2,0.2-0.3,0.2
			c-0.1,0-0.1,0.1-0.2,0.1c0,0-0.1,0-0.1,0.1c-0.1,0.1-0.2,0.2-0.3,0.3c0,0,0,0-0.1,0.1c-0.1,0.1-0.3,0.3-0.4,0.4c0,0,0,0,0,0
			c-0.2,0.2-0.4,0.5-0.6,0.7c0,0,0,0-0.1,0.1c-0.1,0.1-0.1,0.2-0.2,0.2c0,0.1-0.1,0.1-0.1,0.2c-0.1,0.2-0.2,0.4-0.3,0.5c0,0,0,0,0,0
			c0,0,0,0.1-0.1,0.1c-0.1,0.2-0.2,0.3-0.3,0.5c0,0.1-0.1,0.2-0.1,0.2c-0.1,0.1-0.1,0.3-0.2,0.4c0,0,0,0,0,0
			c-0.1,0.2-0.1,0.3-0.2,0.5c0,0.1-0.1,0.2-0.1,0.2c-0.1,0.2-0.1,0.5-0.2,0.7c-0.4,1.9-0.1,3.7,0.7,5.2c0.6,1.1,1.5,2.1,2.6,2.7
			l0.4,0.2c-2.6-1.4-4-4.4-3.3-7.8c0-0.2,0.1-0.5,0.2-0.7c0-0.1,0.1-0.2,0.1-0.2c0-0.2,0.1-0.3,0.2-0.5c0.1-0.1,0.1-0.3,0.2-0.4
			c0-0.1,0.1-0.2,0.1-0.2c0.1-0.2,0.2-0.3,0.3-0.5c0,0,0-0.1,0-0.1c0.1-0.2,0.2-0.4,0.3-0.6c0-0.1,0.1-0.1,0.1-0.2
			c0.1-0.1,0.1-0.2,0.2-0.3c0.2-0.3,0.4-0.5,0.6-0.7c0.1-0.1,0.3-0.3,0.4-0.4c0,0,0,0,0.1-0.1c0.1-0.1,0.3-0.2,0.4-0.4
			c0.1-0.1,0.1-0.1,0.2-0.1c0.1-0.1,0.2-0.2,0.3-0.2c0.1,0,0.1-0.1,0.2-0.1c0.1-0.1,0.2-0.1,0.3-0.2c0.1-0.1,0.2-0.1,0.3-0.2
			c0.1-0.1,0.2-0.1,0.3-0.2c0.1-0.1,0.2-0.1,0.3-0.2c0.1-0.1,0.2-0.1,0.3-0.1c0.1,0,0.2-0.1,0.2-0.1c0.1,0,0.2-0.1,0.4-0.1
			c0.1,0,0.1-0.1,0.2-0.1c0.1,0,0.3-0.1,0.4-0.1c0.1,0,0.1,0,0.2,0c0.2,0,0.4-0.1,0.6-0.1c0.5-0.1,1-0.1,1.6,0c0.2,0,0.4,0,0.6,0.1
			C23.4,12.4,23.5,12.5,23.5,12.5z"/>
		<path class="st5" d="M22.4,7.3c0.1,0,0.1,0,0.2,0c0.1,0,0.2,0,0.3,0c0.1,0,0.1,0,0.2,0c0.1,0,0.2,0,0.3,0c0.1,0,0.2,0,0.2,0
			c0.1,0,0.2,0,0.3,0c0.1,0,0.2,0,0.2,0c0.1,0,0.2,0,0.3,0c0.1,0,0.2,0,0.2,0c0.1,0,0.2,0,0.3,0.1c0.1,0,0.2,0,0.2,0
			c0.1,0,0.2,0,0.3,0.1c0.1,0,0.1,0,0.2,0.1c0.2,0.1,0.4,0.1,0.7,0.2c0,0,0.1,0,0.1,0C26.9,8,27,8.1,27.2,8.2c0.1,0,0.1,0,0.2,0.1
			c0.2,0.1,0.5,0.2,0.7,0.3c0,0,0.1,0,0.1,0c0.2,0.1,0.4,0.2,0.6,0.3c0.1,0,0.1,0.1,0.2,0.1c0.2,0.1,0.5,0.2,0.7,0.4c0,0,0,0,0,0
			l0,0c0,0,0,0,0,0l-0.4-0.2c-0.2-0.1-0.5-0.2-0.7-0.4c0,0-0.1,0-0.1,0c0,0-0.1,0-0.1,0c-0.2-0.1-0.4-0.2-0.6-0.3c0,0-0.1,0-0.1,0
			C27.4,8.2,27.2,8.1,27,8c-0.1,0-0.1,0-0.2-0.1c-0.2-0.1-0.4-0.1-0.6-0.2c0,0-0.1,0-0.1,0c-0.2-0.1-0.5-0.1-0.7-0.2c0,0,0,0-0.1,0
			c-0.1,0-0.1,0-0.2,0c-0.1,0-0.2,0-0.3-0.1c-0.1,0-0.2,0-0.2,0c-0.1,0-0.2,0-0.3-0.1c-0.1,0-0.2,0-0.2,0c-0.1,0-0.2,0-0.3,0
			c-0.1,0-0.2,0-0.2,0c-0.1,0-0.2,0-0.3,0c-0.1,0-0.2,0-0.2,0c-0.1,0-0.2,0-0.3,0c-0.1,0-0.1,0-0.2,0c-0.1,0-0.2,0-0.3,0
			c-0.1,0-0.1,0-0.2,0c-0.1,0-0.2,0-0.3,0c-0.1,0-0.1,0-0.2,0c-0.2,0-0.3,0-0.5,0c-0.1,0-0.2,0-0.4,0c-0.3,0-0.6,0.1-1,0.2
			c0,0,0,0-0.1,0c-0.3,0.1-0.6,0.1-0.9,0.2c0,0-0.1,0-0.1,0C18.3,7.7,18,7.8,17.7,8c0,0-0.1,0-0.1,0c-0.3,0.1-0.6,0.2-0.9,0.4
			c0,0,0,0-0.1,0c0,0-0.1,0-0.1,0c-0.2,0.1-0.4,0.2-0.6,0.3c0,0,0,0,0,0c-0.2,0.1-0.4,0.2-0.6,0.4c-0.1,0-0.1,0.1-0.2,0.1
			c-0.2,0.1-0.4,0.3-0.7,0.4c0,0,0,0,0,0C14.2,9.7,14,9.9,13.8,10c0,0-0.1,0-0.1,0.1c0,0,0,0-0.1,0.1c-0.2,0.2-0.5,0.3-0.7,0.5
			c0,0-0.1,0.1-0.1,0.1c-0.2,0.2-0.5,0.3-0.7,0.5c0,0-0.1,0.1-0.1,0.1c-0.2,0.2-0.5,0.4-0.7,0.6c-0.1,0-0.1,0.1-0.2,0.1
			c-0.3,0.2-0.5,0.4-0.8,0.7c0,0,0,0,0,0c0,0,0,0-0.1,0.1c-0.2,0.2-0.4,0.3-0.5,0.5c-0.1,0.1-0.1,0.1-0.2,0.2
			c-0.1,0.1-0.3,0.2-0.4,0.4C9.1,13.9,9,13.9,8.9,14c-0.1,0.1-0.2,0.2-0.4,0.4c-0.1,0.1-0.2,0.2-0.2,0.2c-0.1,0.1-0.3,0.2-0.4,0.4
			c-0.1,0.1-0.2,0.2-0.3,0.3c-0.1,0.1-0.3,0.3-0.4,0.4c-0.1,0.1-0.2,0.2-0.2,0.2c-0.1,0.2-0.3,0.3-0.4,0.5c-0.1,0.1-0.1,0.1-0.2,0.2
			C6.2,16.8,6,17,5.8,17.2c0,0-0.1,0.1-0.1,0.1c-0.2,0.2-0.4,0.4-0.6,0.6c0,0,0,0,0,0.1C5,18,5,18.1,5,18.1
			c-0.4,0.4-0.7,0.8-1.1,1.2c-0.1,0.1-0.2,0.2-0.3,0.3c0,0,0,0,0,0c0,0,0,0,0,0.1c-0.1,0.1-0.2,0.2-0.2,0.3c0,0,0,0,0,0.1
			c0,0,0,0,0,0.1c-0.1,0.2-0.2,0.3-0.2,0.5c0,0,0,0,0,0c0,0.1,0,0.1-0.1,0.2C3,20.9,3,21,3,21c0,0.1,0,0.1-0.1,0.2c0,0,0,0.1,0,0.1
			c0,0.1,0,0.2,0,0.3c0,0,0,0.1,0,0.1c0,0.1,0,0.3,0,0.4c0,1,0.4,1.9,1.1,2.6c3.1,2.7,5.8,4.7,8.3,6l0.4,0.2c-2.5-1.3-5.2-3.3-8.3-6
			c-0.7-0.6-1.1-1.5-1.1-2.6c0-0.1,0-0.3,0-0.4c0,0,0-0.1,0-0.1c0-0.1,0-0.2,0-0.2c0-0.1,0-0.1,0-0.1c0-0.1,0-0.1,0.1-0.2
			c0-0.1,0-0.1,0.1-0.2c0-0.1,0-0.1,0.1-0.2c0.1-0.2,0.1-0.3,0.2-0.5c0,0,0-0.1,0.1-0.1c0.1-0.1,0.1-0.2,0.2-0.3c0,0,0,0,0-0.1
			c0.1-0.1,0.2-0.2,0.3-0.3c0.4-0.4,0.7-0.8,1.1-1.2c0,0,0.1-0.1,0.1-0.1c0.2-0.2,0.4-0.4,0.6-0.6c0,0,0.1-0.1,0.1-0.1
			c0.2-0.2,0.4-0.5,0.7-0.7C6.9,16.7,7,16.6,7,16.6c0.2-0.2,0.3-0.3,0.4-0.5c0.1-0.1,0.2-0.2,0.2-0.2c0.1-0.1,0.3-0.3,0.4-0.4
			c0.1-0.1,0.2-0.2,0.2-0.2c0.1-0.1,0.3-0.3,0.4-0.4c0.1-0.1,0.2-0.2,0.2-0.2c0.1-0.1,0.3-0.2,0.4-0.4c0.1-0.1,0.2-0.1,0.2-0.2
			c0.1-0.1,0.3-0.2,0.4-0.4c0.1-0.1,0.1-0.1,0.2-0.2c0.2-0.2,0.4-0.3,0.5-0.5c0,0,0,0,0.1,0c0.3-0.2,0.5-0.4,0.8-0.7
			c0.1,0,0.1-0.1,0.2-0.1c0.2-0.2,0.5-0.4,0.7-0.6c0,0,0.1-0.1,0.1-0.1c0.2-0.2,0.5-0.3,0.7-0.5c0,0,0.1-0.1,0.1-0.1
			c0.2-0.2,0.5-0.3,0.7-0.5c0.1,0,0.1-0.1,0.2-0.1c0.2-0.1,0.4-0.3,0.6-0.4c0,0,0,0,0,0c0.2-0.1,0.4-0.3,0.7-0.4
			c0.1,0,0.1-0.1,0.2-0.1c0.4-0.2,0.9-0.5,1.3-0.7c0,0,0.1,0,0.1-0.1c0.3-0.1,0.6-0.3,0.9-0.4c0,0,0.1,0,0.1,0
			C18.5,8.1,18.7,8,19,7.9c0,0,0.1,0,0.1,0c0.3-0.1,0.6-0.2,0.9-0.2c0,0,0,0,0.1,0c0.3-0.1,0.6-0.1,1-0.2c0.1,0,0.2,0,0.4,0
			c0.2,0,0.3,0,0.5,0c0.1,0,0.1,0,0.2,0C22.2,7.3,22.3,7.3,22.4,7.3z"/>
		<g>
			<path class="st3" d="M37.9,15.2c0.8,0.7,1.2,1.7,1.2,2.8c0,1.1-0.4,2.3-1.2,3.2c-6.7,7.6-11.4,11-16.3,11.7
				c-5.1,0.7-10.1-1.7-17.3-7.9c-0.7-0.6-1.1-1.5-1.1-2.6c0-1,0.4-2.1,1.1-2.9C11.1,11.8,16.2,8.1,21,7.4c0.1,0,0.2,0,0.4,0
				C26.2,6.9,31,9.1,37.9,15.2z M36.2,19.6c0.6-0.7,0.6-1.8,0-2.3C29.6,11.5,25.5,9.4,21,10c-3.6,0.5-9.7,4.2-14.5,10.8
				c-0.5,0.7-0.5,1.7,0,2.3c5.4,5.5,10.1,7.9,14.8,7.3C26,29.7,30.6,26.2,36.2,19.6"/>
		</g>
	</g>
</g>
<g>
	<path class="st6" d="M63,29.1c-1.4,0.7-3.1,1.1-5.2,1.1c-2.7,0-4.9-0.8-6.5-2.6c-1.6-1.7-2.4-3.9-2.4-6.7c0-3,0.9-5.4,2.7-7.2
		c1.8-1.8,4.1-2.7,6.9-2.7c1.8,0,3.3,0.3,4.5,0.8v3.1c-1.3-0.7-2.6-1.1-4.1-1.1c-2,0-3.6,0.6-4.9,1.9s-1.9,3-1.9,5.2
		c0,2,0.6,3.7,1.7,4.9s2.7,1.8,4.6,1.8c1.8,0,3.3-0.4,4.6-1.2V29.1z"/>
	<path class="st6" d="M69.7,29.9h-3.2V11.4h3.2V29.9z"/>
	<path class="st6" d="M74.3,29.9V11.4h5.9c1.8,0,3.2,0.4,4.3,1.2c1,0.8,1.6,1.8,1.6,3.1c0,1.1-0.3,2-0.9,2.7s-1.4,1.3-2.5,1.7v0.1
		c1.3,0.1,2.3,0.6,3.1,1.4c0.8,0.8,1.1,1.8,1.1,3.1c0,1.6-0.6,2.9-1.9,3.9c-1.3,1-2.8,1.5-4.7,1.5H74.3z M77.4,13.8v5.3h2
		c1.1,0,1.9-0.3,2.5-0.8s0.9-1.2,0.9-2.1c0-1.6-1.1-2.4-3.2-2.4H77.4z M77.4,21.6v5.9H80c1.1,0,2-0.3,2.7-0.8
		c0.6-0.5,0.9-1.3,0.9-2.2c0-1.9-1.3-2.9-4-2.9H77.4z"/>
	<path class="st6" d="M109.3,29.9h-3v-2.3h-0.1c-1,1.7-2.5,2.6-4.5,2.6c-1.6,0-2.9-0.6-3.9-1.8c-1-1.2-1.5-2.8-1.5-4.8
		c0-2.2,0.5-3.9,1.6-5.3s2.5-2,4.3-2c1.8,0,3.1,0.7,3.9,2.1h0.1v-8.2h3V29.9z M106.4,23.9v-1.7c0-0.9-0.3-1.7-0.9-2.4
		c-0.6-0.7-1.4-1-2.3-1c-1.1,0-2,0.4-2.6,1.3c-0.6,0.8-1,2-1,3.5c0,1.3,0.3,2.4,0.9,3.2c0.6,0.8,1.4,1.2,2.5,1.2
		c1,0,1.9-0.4,2.5-1.1C106,26,106.4,25,106.4,23.9z"/>
	<path class="st6" d="M119.1,30.2c-2,0-3.7-0.6-4.9-1.9c-1.2-1.2-1.8-2.9-1.8-4.9c0-2.2,0.6-4,1.9-5.2c1.3-1.3,3-1.9,5.1-1.9
		c2.1,0,3.7,0.6,4.8,1.8c1.2,1.2,1.7,2.9,1.7,5.1c0,2.1-0.6,3.8-1.9,5.1C122.9,29.6,121.2,30.2,119.1,30.2z M119.3,18.7
		c-1.2,0-2.1,0.4-2.8,1.2c-0.7,0.8-1,2-1,3.4c0,1.4,0.3,2.5,1,3.3c0.7,0.8,1.6,1.2,2.8,1.2c1.2,0,2.1-0.4,2.7-1.2s1-1.9,1-3.4
		c0-1.5-0.3-2.6-1-3.4C121.4,19.1,120.4,18.7,119.3,18.7z"/>
	<path class="st6" d="M143.3,29.9h-3.7l-3.8-6.8c-0.1-0.2-0.2-0.5-0.4-0.9h-0.1c-0.1,0.2-0.2,0.5-0.4,0.9l-3.9,6.8h-3.7l6.1-9.3
		l-5.6-9.2h3.8l3.4,6.3c0.2,0.4,0.4,0.8,0.6,1.2h0c0.3-0.5,0.5-1,0.6-1.3l3.5-6.2h3.5l-5.7,9.2L143.3,29.9z"/>
	<path class="st6" d="M147,13.9c-0.5,0-0.9-0.2-1.3-0.5c-0.3-0.3-0.5-0.7-0.5-1.2c0-0.5,0.2-0.9,0.5-1.2s0.8-0.5,1.3-0.5
		c0.5,0,0.9,0.2,1.3,0.5c0.4,0.3,0.5,0.7,0.5,1.2c0,0.5-0.2,0.9-0.5,1.2C148,13.7,147.5,13.9,147,13.9z M148.5,29.9h-3V16.7h3V29.9z
		"/>
	<path class="st6" d="M163.8,16.7l-5.1,13.3h-3.3l-4.9-13.3h3.3l2.9,9.3c0.2,0.7,0.4,1.3,0.4,1.8h0c0.1-0.6,0.2-1.2,0.4-1.7l3.1-9.3
		H163.8z"/>
	<path class="st6" d="M167.4,13.9c-0.5,0-0.9-0.2-1.3-0.5c-0.3-0.3-0.5-0.7-0.5-1.2c0-0.5,0.2-0.9,0.5-1.2s0.8-0.5,1.3-0.5
		c0.5,0,0.9,0.2,1.3,0.5c0.4,0.3,0.5,0.7,0.5,1.2c0,0.5-0.2,0.9-0.5,1.2C168.3,13.7,167.9,13.9,167.4,13.9z M168.9,29.9h-3V16.7h3
		V29.9z"/>
	<path class="st6" d="M184,24.1h-9c0,1.2,0.4,2.2,1.1,2.8c0.7,0.7,1.7,1,3,1c1.4,0,2.7-0.4,3.9-1.3v2.4c-1.2,0.8-2.8,1.1-4.8,1.1
		c-2,0-3.5-0.6-4.6-1.8c-1.1-1.2-1.7-2.9-1.7-5.1c0-2.1,0.6-3.7,1.8-5s2.7-1.9,4.6-1.9s3.2,0.6,4.2,1.7c1,1.2,1.5,2.8,1.5,4.9V24.1z
		 M181.1,22c0-1.1-0.3-1.9-0.8-2.5c-0.5-0.6-1.2-0.9-2.1-0.9c-0.9,0-1.6,0.3-2.2,0.9c-0.6,0.6-1,1.5-1.1,2.5H181.1z"/>
	<path class="st6" d="M204.7,16.7l-3.9,13.3h-3.1l-2.4-9c-0.1-0.3-0.2-0.7-0.2-1.2H195c0,0.3-0.1,0.7-0.2,1.1l-2.6,9h-3.1l-3.9-13.3
		h3.1l2.4,9.6c0.1,0.3,0.1,0.7,0.2,1.1h0.1c0-0.4,0.1-0.8,0.2-1.2l2.7-9.5h2.8l2.4,9.6c0.1,0.3,0.1,0.7,0.2,1.1h0.1
		c0-0.3,0.1-0.7,0.2-1.1l2.4-9.6H204.7z"/>
</g>
</svg>
