<svg id="Layer_1" data-name="Layer 1" xmlns="http://www.w3.org/2000/svg" viewBox="0 0 206 40"><defs><style>.cls-1{fill:#404040;}.cls-2{fill:#e11e19;}</style></defs><path class="cls-1" d="M73.71,32.42H71.5V30.07h0a5.11,5.11,0,0,1-4.75,2.68,5.17,5.17,0,0,1-4.17-1.86A7.61,7.61,0,0,1,61,25.84a8.31,8.31,0,0,1,1.73-5.5,5.72,5.72,0,0,1,4.6-2.06,4.45,4.45,0,0,1,4.15,2.24h0V12h2.21ZM71.5,26.17v-2a4,4,0,0,0-1.11-2.84,3.7,3.7,0,0,0-2.8-1.16,3.84,3.84,0,0,0-3.19,1.49,6.51,6.51,0,0,0-1.16,4.1,5.8,5.8,0,0,0,1.12,3.77,3.62,3.62,0,0,0,3,1.38,3.78,3.78,0,0,0,3-1.33A5,5,0,0,0,71.5,26.17Z"/><path class="cls-1" d="M85.59,32.75a6.42,6.42,0,0,1-4.89-1.94,7.16,7.16,0,0,1-1.83-5.13,7.45,7.45,0,0,1,1.9-5.44,6.82,6.82,0,0,1,5.14-2,6.21,6.21,0,0,1,4.83,1.9,7.58,7.58,0,0,1,1.73,5.28,7.43,7.43,0,0,1-1.87,5.3A6.57,6.57,0,0,1,85.59,32.75Zm.16-12.61a4.21,4.21,0,0,0-3.37,1.45,6,6,0,0,0-1.24,4,5.64,5.64,0,0,0,1.25,3.88,4.28,4.28,0,0,0,3.36,1.41,4,4,0,0,0,3.3-1.39,6,6,0,0,0,1.15-3.95,6.1,6.1,0,0,0-1.15-4A4,4,0,0,0,85.75,20.14Z"/><path class="cls-1" d="M110.61,32.42h-2.77L103.39,25a6.83,6.83,0,0,1-.44-1h-.06c-.09.2-.24.52-.46,1l-4.59,7.41H95.06l6.48-9.73-6-9.62h2.78l4,6.8a14.35,14.35,0,0,1,.69,1.35h0a14.45,14.45,0,0,1,.76-1.4l4.12-6.75h2.6l-6.09,9.6Z"/><path class="cls-1" d="M116.24,15.09a1.4,1.4,0,0,1-1-.4,1.36,1.36,0,0,1-.42-1,1.4,1.4,0,0,1,.42-1,1.41,1.41,0,0,1,1-.41,1.47,1.47,0,0,1,1,.41,1.46,1.46,0,0,1,0,2A1.47,1.47,0,0,1,116.24,15.09Zm1.08,17.33h-2.21V18.6h2.21Z"/><path class="cls-1" d="M134.55,18.6,129,32.42h-2.17L121.63,18.6h2.43l3.51,10a9.74,9.74,0,0,1,.49,1.93h.05a9,9,0,0,1,.43-1.87l3.67-10.1Z"/><path class="cls-1" d="M140,15.09a1.4,1.4,0,0,1-1-.4,1.36,1.36,0,0,1-.42-1,1.4,1.4,0,0,1,.42-1,1.41,1.41,0,0,1,1-.41,1.47,1.47,0,0,1,1,.41,1.46,1.46,0,0,1,0,2A1.47,1.47,0,0,1,140,15.09ZM141,32.42h-2.21V18.6H141Z"/><path class="cls-1" d="M158.23,26.07h-9.76a5.19,5.19,0,0,0,1.24,3.56A4.27,4.27,0,0,0,153,30.88a6.79,6.79,0,0,0,4.29-1.53v2.07a8,8,0,0,1-4.82,1.33,5.84,5.84,0,0,1-4.6-1.89,7.72,7.72,0,0,1-1.67-5.29A7.56,7.56,0,0,1,148,20.31a5.87,5.87,0,0,1,4.54-2A5.17,5.17,0,0,1,156.74,20a7.34,7.34,0,0,1,1.49,4.88ZM156,24.19a4.53,4.53,0,0,0-.92-3,3.16,3.16,0,0,0-2.53-1.07,3.6,3.6,0,0,0-2.66,1.12,5.07,5.07,0,0,0-1.35,2.93Z"/><path class="cls-1" d="M180.72,18.6l-4.14,13.82h-2.3l-2.84-9.89a6.54,6.54,0,0,1-.22-1.28h-.05a5.8,5.8,0,0,1-.29,1.25l-3.09,9.92h-2.21L161.4,18.6h2.32L166.58,29a6.38,6.38,0,0,1,.19,1.24h.11a5.14,5.14,0,0,1,.24-1.27L170.3,18.6h2L175.19,29a7,7,0,0,1,.2,1.24h.11a5.6,5.6,0,0,1,.23-1.24l2.81-10.42Z"/><path class="cls-2" d="M28.83,31.87a3.54,3.54,0,0,1-3.16,3H23.12V9.67h5.69Z"/><path class="cls-2" d="M35.54,9.67h7.3c2.75,0,4.84.59,6.16,1.74a5.89,5.89,0,0,1,2,4.74,6,6,0,0,1-.91,3.42,5.61,5.61,0,0,1-2.46,2v.07q4.23,1.17,4.25,5.94a8.43,8.43,0,0,1-.53,3.06,5.63,5.63,0,0,1-1.61,2.3A7.31,7.31,0,0,1,47,34.41,14.36,14.36,0,0,1,43,34.9H32.62V12.65a3.84,3.84,0,0,1,2.92-3ZM46.3,27.14a3,3,0,0,0-.77-2.29,3.93,3.93,0,0,0-2.64-.66H38.05v6.09h5a3.8,3.8,0,0,0,2.49-.66,3.2,3.2,0,0,0,.77-2.46Zm-.6-10a2.66,2.66,0,0,0-.71-2.1,3.59,3.59,0,0,0-2.32-.59H38.11v5.47h4.7A3.19,3.19,0,0,0,45,19.27a2.7,2.7,0,0,0,.66-2.14Z"/><path class="cls-2" d="M15.61,14.55c-7-1-8.71,1.32-8.71,7.77,0,6.19,1.72,8.51,9.29,7.72,2.37-.25,2.95.51,3.4,4.23a21.2,21.2,0,0,1-7,1c-3.83-.13-7-1.06-8.81-3.19S1,26.61,1,22.16c0-9,4.06-12.77,11.94-12.77a17.18,17.18,0,0,1,6.45,1.17C18.74,14.64,18,14.91,15.61,14.55Z"/><path class="cls-2" d="M199.4,22.37c1.82,0,4.6-3,4.6-4.55V2.25H189.73V22.37Z"/></svg>