<?xml version="1.0" encoding="utf-8"?>
<!-- Generator: Adobe Illustrator 24.1.3, SVG Export Plug-In . SVG Version: 6.00 Build 0)  -->
<svg version="1.1" id="Layer_1" xmlns="http://www.w3.org/2000/svg" xmlns:xlink="http://www.w3.org/1999/xlink" x="0px" y="0px"
	 viewBox="0 0 206 40" style="enable-background:new 0 0 206 40;" xml:space="preserve">
<style type="text/css">
	.st0{enable-background:new    ;}
	.st1{fill:#212934;}
	.st2{fill:#BEC8D2;}
	.st3{fill:#CED5DC;}
	.st4{fill:#E11E19;}
	.st5{fill:#A8A8A8;}
	.st6{fill:#B2BAC1;}
</style>
<g class="st0">
	<path class="st1" d="M62.6,30.5c-1.5,0.8-3.4,1.3-5.6,1.3c-2.9,0-5.2-1-7-3c-1.7-2-2.6-4.6-2.6-7.8c0-3.4,1-6.2,2.9-8.3
		c2-2.1,4.5-3.2,7.5-3.2c1.9,0,3.5,0.3,4.8,0.9v2.7c-1.5-0.9-3.1-1.3-4.8-1.3c-2.3,0-4.2,0.8-5.7,2.5c-1.5,1.7-2.2,3.9-2.2,6.6
		c0,2.6,0.7,4.7,2,6.3c1.4,1.6,3.1,2.3,5.4,2.3c2,0,3.8-0.5,5.3-1.4V30.5z"/>
	<path class="st1" d="M69.1,31.4h-2.4V9.9h2.4V31.4z"/>
	<path class="st1" d="M74.5,31.4V9.9h5.8c1.8,0,3.2,0.5,4.2,1.4s1.6,2.1,1.6,3.6c0,1.2-0.3,2.3-0.9,3.2c-0.6,0.9-1.5,1.5-2.6,1.9V20
		c1.4,0.2,2.5,0.7,3.3,1.6s1.2,2.1,1.2,3.6c0,1.8-0.6,3.3-1.9,4.5c-1.3,1.1-2.8,1.7-4.7,1.7H74.5z M76.9,12.2v7h2.4
		c1.3,0,2.3-0.3,3.1-1c0.7-0.7,1.1-1.6,1.1-2.8c0-2.1-1.3-3.1-3.9-3.1H76.9z M76.9,21.4v7.7h3.2c1.4,0,2.5-0.4,3.3-1.1
		s1.2-1.7,1.2-2.9c0-2.5-1.6-3.8-4.9-3.8H76.9z"/>
	<path class="st1" d="M108.8,30.7c-1.1,0.7-2.4,1.1-4,1.1c-2.1,0-3.8-0.7-5-2.1s-1.9-3.3-1.9-5.5c0-2.5,0.7-4.6,2.1-6.1
		c1.4-1.5,3.2-2.3,5.5-2.3c1.3,0,2.4,0.3,3.4,0.8V19c-1.1-0.8-2.2-1.2-3.5-1.2c-1.5,0-2.7,0.6-3.7,1.7s-1.4,2.6-1.4,4.4
		c0,1.8,0.4,3.2,1.3,4.3c0.9,1,2.1,1.6,3.6,1.6c1.3,0,2.5-0.4,3.6-1.3V30.7z"/>
	<path class="st1" d="M118.4,31.8c-2.2,0-3.9-0.7-5.2-2.2c-1.3-1.4-1.9-3.3-1.9-5.7c0-2.6,0.7-4.6,2-6.1s3.1-2.2,5.4-2.2
		c2.2,0,3.9,0.7,5.1,2.1c1.2,1.4,1.8,3.4,1.8,5.9c0,2.5-0.7,4.4-2,5.9S120.6,31.8,118.4,31.8z M118.6,17.8c-1.5,0-2.7,0.5-3.6,1.6
		c-0.9,1.1-1.3,2.6-1.3,4.5c0,1.8,0.4,3.3,1.3,4.3c0.9,1.1,2.1,1.6,3.5,1.6c1.5,0,2.7-0.5,3.5-1.5c0.8-1,1.2-2.5,1.2-4.4
		c0-1.9-0.4-3.4-1.2-4.4C121.3,18.3,120.1,17.8,118.6,17.8z"/>
	<path class="st1" d="M128.8,30.6v-3c0.3,0.3,0.7,0.6,1.2,0.8s0.9,0.4,1.4,0.6s1,0.3,1.5,0.4c0.5,0.1,1,0.1,1.4,0.1
		c1.5,0,2.6-0.3,3.3-0.9c0.7-0.6,1.1-1.4,1.1-2.5c0-0.6-0.1-1.1-0.4-1.5c-0.2-0.4-0.6-0.8-1-1.2c-0.4-0.4-0.9-0.7-1.5-1
		c-0.6-0.3-1.2-0.7-1.9-1c-0.7-0.4-1.4-0.8-2-1.2c-0.6-0.4-1.2-0.8-1.6-1.3c-0.5-0.5-0.8-1-1.1-1.6c-0.3-0.6-0.4-1.3-0.4-2.1
		c0-1,0.2-1.8,0.6-2.6c0.4-0.7,0.9-1.3,1.6-1.8c0.7-0.5,1.4-0.8,2.3-1.1c0.8-0.2,1.7-0.3,2.6-0.3c2,0,3.5,0.3,4.4,0.8v2.8
		c-1.2-0.9-2.8-1.3-4.6-1.3c-0.5,0-1,0.1-1.6,0.2c-0.5,0.1-1,0.3-1.4,0.6c-0.4,0.3-0.7,0.6-1,1c-0.3,0.4-0.4,0.9-0.4,1.5
		c0,0.6,0.1,1,0.3,1.4c0.2,0.4,0.5,0.8,0.9,1.1c0.4,0.3,0.8,0.7,1.4,1s1.2,0.7,1.9,1c0.7,0.4,1.4,0.8,2.1,1.2
		c0.7,0.4,1.2,0.9,1.7,1.4c0.5,0.5,0.9,1.1,1.2,1.7c0.3,0.6,0.4,1.3,0.4,2.1c0,1.1-0.2,2-0.6,2.7c-0.4,0.7-0.9,1.3-1.6,1.8
		c-0.7,0.5-1.4,0.8-2.3,1s-1.8,0.3-2.8,0.3c-0.3,0-0.7,0-1.2-0.1c-0.5-0.1-1-0.1-1.5-0.2c-0.5-0.1-1-0.2-1.4-0.4
		C129.4,30.9,129,30.8,128.8,30.6z"/>
	<path class="st1" d="M155.7,16.1L149,33.9c-1.2,3.2-2.9,4.8-5,4.8c-0.6,0-1.1-0.1-1.5-0.2v-2.2c0.5,0.2,1,0.3,1.4,0.3
		c1.2,0,2.1-0.7,2.6-2.2l1.2-2.9l-5.7-15.3h2.6l3.9,11.8c0,0.2,0.1,0.5,0.3,1.2h0.1c0-0.2,0.1-0.6,0.3-1.1l4.1-11.9H155.7z"/>
	<path class="st1" d="M157.3,30.9v-2.6c1.3,1,2.7,1.5,4.2,1.5c2.1,0,3.1-0.7,3.1-2.2c0-0.4-0.1-0.8-0.3-1c-0.2-0.3-0.4-0.5-0.7-0.8
		s-0.7-0.4-1.1-0.6c-0.4-0.2-0.8-0.4-1.3-0.5c-0.6-0.3-1.2-0.5-1.7-0.8c-0.5-0.3-0.9-0.6-1.2-0.9c-0.3-0.3-0.6-0.7-0.7-1.2
		s-0.2-1-0.2-1.5c0-0.7,0.2-1.4,0.5-1.9c0.3-0.6,0.7-1,1.3-1.4c0.5-0.4,1.1-0.7,1.8-0.8c0.7-0.2,1.4-0.3,2.1-0.3
		c1.3,0,2.4,0.2,3.4,0.7v2.5c-1.1-0.7-2.3-1.1-3.7-1.1c-0.4,0-0.8,0.1-1.2,0.2c-0.4,0.1-0.7,0.3-0.9,0.4c-0.3,0.2-0.4,0.4-0.6,0.7
		c-0.1,0.3-0.2,0.6-0.2,0.9c0,0.4,0.1,0.7,0.2,1c0.1,0.3,0.3,0.5,0.6,0.7c0.3,0.2,0.6,0.4,1,0.6c0.4,0.2,0.8,0.4,1.3,0.6
		c0.6,0.3,1.2,0.5,1.7,0.8s0.9,0.6,1.3,0.9c0.4,0.3,0.6,0.7,0.8,1.2c0.2,0.5,0.3,1,0.3,1.6c0,0.8-0.2,1.4-0.5,2s-0.7,1-1.3,1.4
		c-0.5,0.4-1.1,0.6-1.8,0.8c-0.7,0.2-1.4,0.3-2.2,0.3C159.7,31.8,158.4,31.5,157.3,30.9z"/>
</g>
<g>
	<g class="st0">
		<path class="st2" d="M33.7,21.8c-0.4-0.7-0.9-1.2-1.5-1.5l-1.6-0.9c1.2,0.7,2,2.1,2,3.8c0,0.3,0,0.7-0.1,1c0,0.1-0.1,0.2-0.1,0.3
			c0,0.2-0.1,0.4-0.2,0.6c-0.1,0.3-0.2,0.6-0.4,0.8c0,0.1-0.1,0.1-0.1,0.2c-0.1,0.2-0.2,0.4-0.4,0.6c0,0.1-0.1,0.1-0.1,0.2
			c-0.2,0.2-0.4,0.4-0.6,0.6c0,0,0,0-0.1,0.1c-0.2,0.2-0.4,0.3-0.6,0.5c-0.1,0.1-0.2,0.1-0.3,0.2c-0.2,0.1-0.3,0.2-0.5,0.3
			c-0.1,0-0.1,0.1-0.2,0.1c-0.3,0.1-0.5,0.2-0.8,0.2c0,0,0,0-0.1,0l0,0c-0.2,0-0.5,0-0.7,0c-0.1,0-0.1,0-0.2,0c-0.2,0-0.3,0-0.5-0.1
			c-0.1,0-0.2,0-0.2-0.1c-0.2,0-0.3-0.1-0.4-0.2c-0.1,0-0.2-0.1-0.3-0.1l1.6,0.9c0,0,0.1,0,0.1,0.1c0,0,0.1,0,0.1,0.1
			c0.1,0.1,0.3,0.1,0.4,0.2H28h0.1c0.2,0,0.3,0.1,0.5,0.1c0.1,0,0.1,0,0.2,0c0.2,0,0.5,0,0.7,0c0,0,0,0,0.1,0c0.3,0,0.5-0.1,0.8-0.2
			c0.1,0,0.1-0.1,0.2-0.1s0.2-0.1,0.2-0.1c0.1,0,0.2-0.1,0.3-0.2c0.1-0.1,0.2-0.1,0.3-0.2c0,0,0.1,0,0.1-0.1
			c0.2-0.1,0.3-0.2,0.4-0.4c0,0,0,0,0.1-0.1l0,0c0.2-0.1,0.3-0.3,0.4-0.5l0.1-0.1c0-0.1,0.1-0.1,0.1-0.2c0.1-0.1,0.1-0.1,0.2-0.2
			c0.1-0.1,0.2-0.3,0.2-0.4s0.1-0.1,0.1-0.2c0,0,0,0,0-0.1c0.1-0.2,0.2-0.5,0.3-0.8l0,0c0.1-0.2,0.1-0.4,0.2-0.6
			c0-0.1,0.1-0.2,0.1-0.3c0.1-0.3,0.1-0.7,0.1-1C34.3,23.2,34.1,22.4,33.7,21.8z"/>
		<path class="st3" d="M31,16.9c0.3,0,0.6,0,0.8,0.1h0.1c0.2,0.1,0.5,0.1,0.7,0.2h0.1c0.3,0.1,0.5,0.2,0.8,0.4L32,16.7
			c-0.1,0-0.1-0.1-0.2-0.1c-0.2-0.1-0.4-0.2-0.6-0.3h-0.1c-0.1,0-0.3-0.1-0.4-0.1s-0.2,0-0.3-0.1h-0.1C30,16,29.7,16,29.4,16
			c-0.1,0-0.1,0-0.2,0c-0.3,0-0.6,0-0.9,0.1h-0.1c-0.3,0-0.6,0.1-0.9,0.2c-0.1,0-0.2,0.1-0.2,0.1c-0.2,0.1-0.5,0.2-0.7,0.3
			c0,0-0.1,0-0.1,0.1l0,0c-0.3,0.2-0.7,0.4-1,0.6c0,0-0.1,0-0.1,0.1c0,0-0.1,0-0.1,0.1c-0.3,0.2-0.5,0.4-0.7,0.6l0,0
			c0,0,0,0.1-0.1,0.1c-0.2,0.2-0.4,0.4-0.5,0.6L23.7,19l-0.1,0.1c-0.2,0.2-0.3,0.4-0.4,0.6l-0.1,0.1c0,0,0,0,0,0.1
			c-0.2,0.3-0.3,0.6-0.5,0.8c0,0,0,0,0,0.1v0.1c-0.2,0.3-0.3,0.7-0.4,1.1c0,0,0,0,0,0.1l0,0c0,0.1-0.1,0.3-0.1,0.4S22,22.7,22,22.8
			c0,0.2-0.1,0.3-0.1,0.5c0,0.1,0,0.2-0.1,0.3c0,0.2,0,0.4-0.1,0.5c0,0.1,0,0.2,0,0.3c0,0.3,0,0.5,0,0.8c0,2.7,1.3,5,3.2,6l1.6,0.9
			c-1.9-1.1-3.2-3.3-3.2-6c0-0.3,0-0.5,0-0.8c0-0.1,0-0.2,0-0.3c0-0.2,0-0.4,0.1-0.5c0-0.1,0-0.2,0.1-0.3c0-0.2,0.1-0.3,0.1-0.5
			c0-0.1,0.1-0.2,0.1-0.3c0-0.1,0.1-0.3,0.1-0.4v-0.1c0.1-0.4,0.3-0.7,0.4-1.1c0-0.1,0.1-0.1,0.1-0.2c0.2-0.3,0.3-0.6,0.5-0.8
			c0-0.1,0.1-0.1,0.1-0.2c0.1-0.2,0.3-0.4,0.4-0.6c0.1-0.1,0.1-0.1,0.2-0.2c0.2-0.2,0.4-0.4,0.5-0.6c0-0.2,0-0.2,0-0.2
			c0.2-0.2,0.5-0.4,0.7-0.6c0.1,0,0.1-0.1,0.2-0.1c0.3-0.2,0.6-0.4,1-0.6c0.1,0,0.1,0,0.2-0.1c0.2-0.1,0.5-0.2,0.7-0.3
			c0.1,0,0.2-0.1,0.2-0.1c0.3-0.1,0.6-0.2,0.9-0.2H30C30.3,17,30.6,16.9,31,16.9C30.9,16.9,31,16.9,31,16.9z"/>
		<g>
			<path class="st4" d="M30,17c3.8-0.6,6.8,2.4,6.9,6.7c0,4.3-3,8.3-6.8,8.9H30c-3.8,0.6-6.8-2.4-6.8-6.7C23.1,21.6,26.1,17.6,30,17
				C29.9,17,29.9,17,30,17z M30,29.7c2.4-0.4,4.3-2.9,4.3-5.7c0-2.7-2-4.6-4.3-4.3c0,0,0,0-0.1,0c-2.4,0.4-4.3,2.9-4.3,5.7
				C25.6,28.2,27.6,30.1,30,29.7L30,29.7"/>
		</g>
	</g>
	<g class="st0">
		<path class="st3" d="M8.8,25c0.1,0,0.2,0,0.3,0s0.1,0,0.2,0c0.1,0,0.2,0.1,0.3,0.1s0.1,0.1,0.2,0.1l-1.6-0.9H8.1H8
			c-0.1,0-0.2-0.1-0.3-0.1c0,0,0,0-0.1,0H7.5c-0.1,0-0.2,0-0.3-0.1H7.1c-0.2,0-0.3,0-0.5,0l0,0c-0.2,0-0.4,0.1-0.5,0.1
			c0,0-0.1,0-0.1,0.1c-0.1,0-0.1,0-0.2,0.1c-0.1,0-0.1,0.1-0.2,0.1s-0.1,0.1-0.2,0.1c0,0-0.1,0-0.1,0.1C5.2,24.8,5.1,24.9,5,25l0,0
			l0,0c-0.1,0.1-0.2,0.2-0.3,0.3c0,0,0,0.1-0.1,0.1l-0.1,0.1l-0.1,0.1c-0.1,0.1-0.1,0.2-0.2,0.3c0,0,0,0.1-0.1,0.1l0,0
			c-0.1,0.2-0.2,0.3-0.2,0.5l0,0c0,0.1-0.1,0.3-0.1,0.4s0,0.1-0.1,0.2c0,0.2-0.1,0.5-0.1,0.7c0,1.2,0.6,2.1,1.4,2.6l1.6,0.9
			c-0.8-0.5-1.3-1.4-1.4-2.6c0-0.2,0-0.5,0.1-0.7c0-0.1,0-0.2,0.1-0.2c0-0.1,0.1-0.3,0.1-0.4c0.1-0.2,0.2-0.4,0.2-0.6
			c0,0,0-0.1,0.1-0.1c0.1-0.1,0.2-0.3,0.3-0.4l0.1-0.1c0.1-0.1,0.2-0.3,0.4-0.4l0,0c0.1-0.1,0.3-0.2,0.4-0.3c0.1,0,0.1-0.1,0.2-0.1
			c0.1-0.1,0.2-0.1,0.3-0.2c0,0,0.1,0,0.1-0.1c0.2,0,0.3-0.1,0.5-0.1l0,0c0.2,0,0.3,0,0.5,0C8.7,24.9,8.7,25,8.8,25z"/>
		<g>
			<path class="st4" d="M8.2,25c1.6-0.2,2.9,1,2.9,2.9c0,1.8-1.3,3.5-2.9,3.8l0,0c-1.6,0.2-2.9-1-2.9-2.9C5.2,26.9,6.5,25.2,8.2,25
				C8.1,25,8.1,25,8.2,25z"/>
		</g>
	</g>
	<g class="st0">
		<g>
			<path class="st5" d="M32.4,3.2L32.4,3.2L32.4,3.2z"/>
			<path class="st3" d="M30.7,2.3L30.7,2.3c-0.1-0.1-0.1-0.1-0.2-0.1s-0.2-0.1-0.3-0.1c0,0,0,0-0.1,0H30C30,2,29.9,2,29.8,2h-0.1
				c-0.2,0-0.3,0-0.5,0l0,0c-0.2,0-0.4,0.1-0.5,0.1c0,0-0.1,0-0.1,0.1c-0.1,0-0.1,0-0.2,0.1c-0.1,0-0.1,0.1-0.2,0.1S28.1,2.5,28,2.5
				c0,0-0.1,0-0.1,0.1c-0.1,0.1-0.2,0.2-0.3,0.2l0,0l0,0c-0.1,0.1-0.2,0.2-0.3,0.3c0,0,0,0.1-0.1,0.1l-0.1,0.1L27,3.4
				c-0.1,0.1-0.1,0.2-0.1,0.3c0,0,0,0.1-0.1,0.1l0,0c-0.1,0.2-0.2,0.3-0.2,0.5l0,0c0,0.1-0.1,0.3-0.1,0.4s0,0.1-0.1,0.2
				c0,0.2-0.1,0.5-0.1,0.7c0,1.2,0.5,2.1,1.4,2.6l1.6,0.9c-0.8-0.5-1.3-1.4-1.4-2.6c0-0.2,0-0.5,0.1-0.7c0,0.2,0,0.1,0,0.1
				c0-0.1,0.1-0.3,0.1-0.4c0.1-0.2,0.2-0.4,0.2-0.6c0,0,0-0.1,0.1-0.1c0.1-0.1,0.2-0.3,0.3-0.4l0.1-0.1C28.9,4.2,29,4,29.2,3.9l0,0
				c0.1-0.1,0.3-0.2,0.4-0.3c0.1,0,0.1-0.1,0.2-0.1c0.1-0.1,0.2-0.1,0.3-0.2c0,0,0.1,0,0.1-0.1C30.4,3.1,30.6,3,30.8,3l0,0
				c0.2,0,0.3,0,0.5,0h0.1c0.1,0,0.2,0,0.3,0.1c0.1,0,0.1,0,0.2,0s0.2,0.1,0.3,0.1c0.1,0,0.1,0.1,0.2,0.1l0,0L30.7,2.3z"/>
		</g>
		<g>
			<path class="st4" d="M30.8,3c1.6-0.2,2.9,1,2.9,2.9c0,1.8-1.3,3.5-2.9,3.8l0,0c-1.6,0.2-2.9-1-2.9-2.9C27.9,4.9,29.2,3.2,30.8,3
				L30.8,3z"/>
		</g>
	</g>
	<g class="st0">
		<g>
			<polygon class="st2" points="21.9,19.6 20.3,18.7 17.6,16 19.2,16.9 			"/>
		</g>
		<g>
			<polygon class="st3" points="19.2,16.9 17.6,16 18.5,14.8 20.2,15.7 			"/>
		</g>
		<g>
			<polygon class="st4" points="20.2,15.7 22.9,18.4 21.9,19.6 19.2,16.9 			"/>
		</g>
	</g>
	<g class="st0">
		<path class="st3" d="M15.8,8.5C15.7,8.5,15.7,8.5,15.8,8.5c-0.1-0.1-0.1-0.1-0.2-0.1c-0.1,0-0.2-0.1-0.3-0.1c0,0,0,0-0.1,0h-0.1
			c-0.1,0-0.2,0-0.3-0.1h-0.1c-0.2,0-0.3,0-0.5,0l0,0c-0.2,0-0.4,0.1-0.5,0.1c0,0-0.1,0-0.1,0.1c-0.1,0-0.1,0-0.2,0.1
			c-0.1,0-0.1,0.1-0.2,0.1c-0.1,0-0.1,0.1-0.2,0.1c0,0-0.1,0-0.1,0.1c-0.1,0.1-0.2,0.2-0.3,0.3l0,0l0,0c-0.1,0.1-0.2,0.2-0.3,0.3
			c0,0,0,0.1-0.1,0.1l-0.1,0.1L12,9.7c-0.1,0.1-0.1,0.2-0.2,0.3c0,0,0,0.1-0.1,0.1l0,0c-0.1,0.2-0.2,0.3-0.2,0.5l0,0
			c0,0.1-0.1,0.3-0.1,0.4c0,0.1,0,0.2-0.1,0.2c0,0.2-0.1,0.5-0.1,0.7c0,1.2,0.6,2.1,1.4,2.6l1.6,0.9c-0.8-0.5-1.3-1.4-1.4-2.6
			c0-0.2,0-0.5,0.1-0.7c0-0.1,0-0.2,0.1-0.2c0-0.1,0.1-0.3,0.1-0.4c0.1-0.2,0.2-0.4,0.2-0.6c0,0,0-0.1,0.1-0.1
			c0.1-0.1,0.2-0.3,0.3-0.4l0.1-0.1c0.1-0.1,0.2-0.3,0.4-0.4l0,0c0.1-0.1,0.3-0.2,0.4-0.3c0.1,0,0.1-0.1,0.2-0.1
			c0.1-0.1,0.2-0.1,0.3-0.2c0,0,0.1,0,0.1-0.1c0.2-0.1,0.3-0.1,0.5-0.1l0,0c0.2,0,0.3,0,0.5,0h0.1c0.1,0,0.2,0,0.3,0.1
			c0.1,0,0.1,0,0.2,0s0.2,0.1,0.3,0.1c0.1,0,0.1,0.1,0.2,0.1L15.8,8.5z"/>
		<g>
			<path class="st4" d="M15.8,9.2c1.6-0.2,2.9,1,2.9,2.9c0,1.8-1.3,3.5-2.9,3.8l0,0c-1.6,0.2-2.9-1-2.9-2.9
				C12.9,11.2,14.2,9.5,15.8,9.2L15.8,9.2z"/>
		</g>
	</g>
	<g class="st0">
		<g>
			<polygon class="st2" points="12.9,28.6 11.2,27.6 11.2,25.8 12.9,26.8 			"/>
		</g>
		<g>
			<polygon class="st3" points="12.9,26.8 11.2,25.8 19.8,24.6 21.4,25.5 			"/>
		</g>
		<g>
			<polygon class="st4" points="21.4,25.5 21.4,27.3 12.9,28.6 12.9,26.8 			"/>
		</g>
	</g>
	<g class="st0">
		<g>
			<polygon class="st3" points="30.1,15 28.5,14.2 28.5,12.8 30.1,13.6 			"/>
		</g>
		<g>
			<polygon class="st6" points="30.1,13.6 28.5,12.8 29.8,12.6 31.5,13.5 			"/>
		</g>
		<g>
			<polygon class="st4" points="31.5,13.5 31.5,14.8 30.1,15 30.1,13.6 			"/>
		</g>
	</g>
	<g class="st0">
		<g>
			<polygon class="st3" points="30.1,13 28.5,12.2 28.5,11 30.1,11.7 			"/>
		</g>
		<g>
			<polygon class="st2" points="30.1,11.7 28.5,11 29.9,10.9 31.5,11.6 			"/>
		</g>
		<g>
			<polygon class="st4" points="31.5,11.6 31.5,12.8 30.1,13 30.1,11.7 			"/>
		</g>
	</g>
</g>
</svg>
